<?xml version="1.0" encoding="UTF-8" standalone="no"?>
<svg
   xmlns:dc="http://purl.org/dc/elements/1.1/"
   xmlns:cc="http://creativecommons.org/ns#"
   xmlns:rdf="http://www.w3.org/1999/02/22-rdf-syntax-ns#"
   xmlns:svg="http://www.w3.org/2000/svg"
   xmlns="http://www.w3.org/2000/svg"
   xmlns:xlink="http://www.w3.org/1999/xlink"
   xmlns:sodipodi="http://sodipodi.sourceforge.net/DTD/sodipodi-0.dtd"
   xmlns:inkscape="http://www.inkscape.org/namespaces/inkscape"
   version="1.1"
   width="24"
   height="24"
   id="svg4505"
   inkscape:version="0.91 r13725"
   sodipodi:docname="system-os-installer.svg">
  <sodipodi:namedview
     pagecolor="#ffffff"
     bordercolor="#666666"
     borderopacity="1"
     objecttolerance="10"
     gridtolerance="10000"
     guidetolerance="10"
     inkscape:pageopacity="0"
     inkscape:pageshadow="2"
     inkscape:window-width="1366"
     inkscape:window-height="705"
     id="namedview49"
     showgrid="true"
     inkscape:snap-perpendicular="true"
     inkscape:snap-tangential="true"
     inkscape:snap-bbox="true"
     inkscape:bbox-paths="true"
     inkscape:bbox-nodes="true"
     inkscape:snap-bbox-edge-midpoints="true"
     inkscape:snap-bbox-midpoints="false"
     inkscape:object-paths="true"
     inkscape:snap-intersection-paths="true"
     inkscape:object-nodes="true"
     inkscape:snap-smooth-nodes="true"
     inkscape:snap-midpoints="true"
     inkscape:snap-object-midpoints="true"
     inkscape:snap-center="true"
     inkscape:snap-text-baseline="true"
     inkscape:snap-page="true"
     inkscape:snap-global="true"
     inkscape:snap-nodes="true"
     inkscape:zoom="13.906433"
     inkscape:cx="-7.2417996"
     inkscape:cy="17.749656"
     inkscape:window-x="0"
     inkscape:window-y="30"
     inkscape:window-maximized="1"
     inkscape:current-layer="svg4505">
    <inkscape:grid
       type="xygrid"
       id="grid4177" />
  </sodipodi:namedview>
  <defs
     id="defs4507">
    <linearGradient
       id="linearGradient3820-7-2-2">
      <stop
         id="stop3822-2-6-36"
         style="stop-color:#3d3d3d;stop-opacity:1"
         offset="0" />
      <stop
         id="stop3864-8-7-6"
         style="stop-color:#686868;stop-opacity:0.49803922"
         offset="0.5" />
      <stop
         id="stop3824-1-2-4"
         style="stop-color:#686868;stop-opacity:0"
         offset="1" />
    </linearGradient>
    <linearGradient
       id="linearGradient4011">
      <stop
         id="stop4013"
         style="stop-color:#ffffff;stop-opacity:1"
         offset="0" />
      <stop
         id="stop4015"
         style="stop-color:#ffffff;stop-opacity:0.23529412"
         offset="0.507761" />
      <stop
         id="stop4017"
         style="stop-color:#ffffff;stop-opacity:0.15686275"
         offset="0.83456558" />
      <stop
         id="stop4019"
         style="stop-color:#ffffff;stop-opacity:0.39215687"
         offset="1" />
    </linearGradient>
    <linearGradient
       id="linearGradient4632-92-3-0-8-1-6-6">
      <stop
         id="stop4634-68-8-0-2-9-1-1"
         style="stop-color:#fafafa;stop-opacity:1"
         offset="0" />
      <stop
         id="stop4636-8-21-7-1-4-9-4"
         style="stop-color:#e1e1e1;stop-opacity:1"
         offset="1" />
    </linearGradient>
    <linearGradient
       id="linearGradient3104-8-8-97-4-6-2-0-1-4-0-5-8-3-9-1-4">
      <stop
         id="stop3106-5-4-3-5-0-1-61-9-2-7-3-3-2-6-9-2"
         style="stop-color:#000000;stop-opacity:0.32173914"
         offset="0" />
      <stop
         id="stop3108-4-3-7-8-2-4-01-9-9-0-6-4-3-7-7-3"
         style="stop-color:#000000;stop-opacity:0.27826086"
         offset="1" />
    </linearGradient>
    <linearGradient
       gradientTransform="matrix(0.77562456,0,0,0.77562491,-43.981566,-9.614261)"
       gradientUnits="userSpaceOnUse"
       xlink:href="#linearGradient4806-9"
       id="linearGradient3097"
       y2="40.495617"
       x2="71.204407"
       y1="15.369057"
       x1="71.204407" />
    <linearGradient
       id="linearGradient4806-9">
      <stop
         offset="0"
         style="stop-color:#ffffff;stop-opacity:1"
         id="stop4808-49" />
      <stop
         offset="0.42447853"
         style="stop-color:#ffffff;stop-opacity:0.23529412"
         id="stop4810-05" />
      <stop
         offset="0.82089913"
         style="stop-color:#ffffff;stop-opacity:0.15686275"
         id="stop4812-6" />
      <stop
         offset="1"
         style="stop-color:#ffffff;stop-opacity:0.39215687"
         id="stop4814-7" />
    </linearGradient>
    <radialGradient
       gradientTransform="matrix(0.11151981,0,0,0.03548359,0.94202897,15.166729)"
       gradientUnits="userSpaceOnUse"
       xlink:href="#linearGradient3820-7-2-2"
       id="radialGradient3108"
       fy="186.17059"
       fx="99.157013"
       r="62.769119"
       cy="186.17059"
       cx="99.157013" />
    <linearGradient
       x1="71.204407"
       y1="7.8309216"
       x2="71.204407"
       y2="42.883553"
       id="linearGradient3364-8"
       xlink:href="#linearGradient4011"
       gradientUnits="userSpaceOnUse"
       gradientTransform="matrix(0.21621622,0,0,0.21621622,2.9900492,13.017354)" />
    <radialGradient
       cx="6.2751122"
       cy="8.4497671"
       r="19.99999"
       fx="6.2751122"
       fy="8.4497671"
       id="radialGradient3370-2"
       xlink:href="#linearGradient4632-92-3-0-8-1-6-6"
       gradientUnits="userSpaceOnUse"
       gradientTransform="matrix(0,0.5485247,-0.58027369,-1.4929998e-8,23.403203,10.557946)" />
    <linearGradient
       x1="-95.837799"
       y1="54.199703"
       x2="-95.837799"
       y2="5.1757793"
       id="linearGradient3373-2-5"
       xlink:href="#linearGradient3104-8-8-97-4-6-2-0-1-4-0-5-8-3-9-1-4"
       gradientUnits="userSpaceOnUse"
       gradientTransform="matrix(0.53833223,0,0,0.5558293,33.381992,-4.173296)" />
    <linearGradient
       id="linearGradient2867-449-88-871-390-598-476-591-434-148-57-177-3-8-8">
      <stop
         offset="0"
         style="stop-color:#90dbec;stop-opacity:1"
         id="stop3750-8-9-0" />
      <stop
         offset="0.26238"
         style="stop-color:#42baea;stop-opacity:1"
         id="stop3752-3-2-2" />
      <stop
         offset="0.704952"
         style="stop-color:#3689e6;stop-opacity:1"
         id="stop3754-7-2-2-9" />
      <stop
         offset="1"
         style="stop-color:#2b63a0;stop-opacity:1"
         id="stop3756-9-3-05" />
    </linearGradient>
    <radialGradient
       gradientTransform="matrix(0,2.5609769,-2.7092078,-6.9705848e-8,34.892235,-9.5088666)"
       gradientUnits="userSpaceOnUse"
       xlink:href="#linearGradient2867-449-88-871-390-598-476-591-434-148-57-177-3-8-8-2"
       id="radialGradient3386"
       fy="8.4497671"
       fx="1.1978998"
       r="19.99999"
       cy="8.4497671"
       cx="1.1978998" />
    <linearGradient
       gradientTransform="matrix(0.53069046,0,0,0.53069075,-63.930295,-12.042942)"
       gradientUnits="userSpaceOnUse"
       xlink:href="#linearGradient4806-9"
       id="linearGradient3097-2"
       y2="40.495617"
       x2="71.204407"
       y1="15.369057"
       x1="71.204407" />
    <linearGradient
       x1="71.204407"
       y1="7.8309216"
       x2="71.204407"
       y2="42.883553"
       id="linearGradient3364-8-6"
       xlink:href="#linearGradient4011"
       gradientUnits="userSpaceOnUse"
       gradientTransform="matrix(0.16216217,0,0,0.16216217,-0.1324634,7.3880156)" />
    <radialGradient
       cx="6.2751122"
       cy="8.4497671"
       r="19.99999"
       fx="6.2751122"
       fy="8.4497671"
       id="radialGradient3370-2-0"
       xlink:href="#linearGradient4632-92-3-0-8-1-6-6"
       gradientUnits="userSpaceOnUse"
       gradientTransform="matrix(0,0.42663032,-0.45132398,-1.1612221e-8,15.313602,5.3228469)" />
    <linearGradient
       x1="-95.837799"
       y1="54.199703"
       x2="-95.837799"
       y2="5.1757793"
       id="linearGradient3373-2-5-6"
       xlink:href="#linearGradient3104-8-8-97-4-6-2-0-1-4-0-5-8-3-9-1-4"
       gradientUnits="userSpaceOnUse"
       gradientTransform="matrix(0.43066578,0,0,0.44466344,23.405594,-6.6386368)" />
    <linearGradient
       id="linearGradient2867-449-88-871-390-598-476-591-434-148-57-177-3-8-8-2">
      <stop
         id="stop3750-8-9-0-6"
         style="stop-color:#ec9090;stop-opacity:1"
         offset="0" />
      <stop
         id="stop3752-3-2-2-1"
         style="stop-color:#ea4242;stop-opacity:1"
         offset="0.26238" />
      <stop
         id="stop3754-7-2-2-9-8"
         style="stop-color:#e63636;stop-opacity:1"
         offset="0.704952" />
      <stop
         id="stop3756-9-3-05-7"
         style="stop-color:#a02b2b;stop-opacity:1"
         offset="1" />
    </linearGradient>
    <radialGradient
       cx="1.1978998"
       cy="8.4497671"
       r="19.99999"
       fx="1.1978998"
       fy="8.4497671"
       id="radialGradient3386-9"
       xlink:href="#linearGradient2867-449-88-871-390-598-476-591-434-148-57-177-3-8-8-2"
       gradientUnits="userSpaceOnUse"
       gradientTransform="matrix(0,1.8292692,-1.9351484,-4.9789892e-8,-9.275522,-12.61625)" />
  </defs>
  <metadata
     id="metadata4510">
    <rdf:RDF>
      <cc:Work
         rdf:about="">
        <dc:format>image/svg+xml</dc:format>
        <dc:type
           rdf:resource="http://purl.org/dc/dcmitype/StillImage" />
        <dc:title></dc:title>
      </cc:Work>
    </rdf:RDF>
  </metadata>
  <path
     style="fill:url(#radialGradient3108);fill-opacity:1;stroke:none"
     id="path3818-0-2-5"
     d="m 19,21.772727 a 7,2.2272727 0 0 1 -14,0 7,2.2272727 0 1 1 14,0 z" />
  <path
     d="M 12.000001,1.4979502 C 6.206464,1.4979502 1.5,6.204412 1.5,11.99795 c 0,5.793538 4.706464,10.500002 10.500001,10.500001 5.793536,0 10.500005,-4.706463 10.499999,-10.500001 C 22.5,6.204412 17.793537,1.4979502 12.000001,1.4979502 Z"
     id="path2555-72"
     style="color:#000000;display:inline;overflow:visible;visibility:visible;fill:url(#radialGradient3386);fill-opacity:1.0;fill-rule:nonzero;stroke:none;stroke-width:1;marker:none;enable-background:accumulate" />
  <path
     style="color:#000000;display:inline;overflow:visible;visibility:visible;opacity:0.5;fill:#000000;fill-opacity:0;fill-rule:nonzero;stroke:#7d0000;stroke-width:1;stroke-linecap:round;stroke-linejoin:round;stroke-miterlimit:4;stroke-dasharray:none;stroke-dashoffset:0;stroke-opacity:1;marker:none;enable-background:accumulate;clip-rule:nonzero;isolation:auto;mix-blend-mode:normal;color-interpolation:sRGB;color-interpolation-filters:linearRGB;solid-color:#000000;solid-opacity:1;filter-blend-mode:normal;filter-gaussianBlur-deviation:0;color-rendering:auto;image-rendering:auto;shape-rendering:auto;text-rendering:auto"
     id="path2555-7-1-7"
     d="M 12,1.5 C 6.206462,1.5 1.5,6.206462 1.5,11.999999 1.5,17.793538 6.206462,22.500002 12,22.5 17.793538,22.5 22.500007,17.793538 22.5,11.999999 22.5,6.206462 17.793538,1.5 12,1.5 Z" />
  <path
     style="color:#000000;display:inline;overflow:visible;visibility:visible;opacity:0.5;fill:none;stroke:url(#linearGradient3097);stroke-width:1;stroke-linecap:round;stroke-linejoin:round;stroke-miterlimit:4;stroke-dasharray:none;stroke-dashoffset:0;stroke-opacity:1;marker:none;enable-background:accumulate"
     id="path3421"
     d="m 21.500001,12 c 0,5.246706 -4.253305,9.5 -9.500001,9.5 -5.246695,0 -9.5,-4.253294 -9.5,-9.5 0,-5.246704 4.253305,-9.5 9.5,-9.5 5.246696,0 9.500001,4.253296 9.500001,9.5 z" />
  <path
     d="m 6.2209945,8.8465862 2.8592265,0 0,-0.8465866 1.852906,0 -0.01598,0.8465866 6.197651,0 0,2.0126398 -6.197652,0 0,0.942427 3.434266,0 q 1.198001,0.04792 1.900829,0.495173 0.702826,0.447253 1.00632,1.134106 0.319465,0.67088 0.319465,1.373708 0,0.942426 -0.399332,1.725118 -0.399333,0.782693 -1.118135,1.134108 -0.702825,0.351412 -1.613307,0.33544 l -0.894505,0 0,-1.836934 0.990346,0 q 0.287521,0 0.57504,-0.223626 0.303496,-0.223627 0.399335,-0.559067 0.09584,-0.33544 0.09584,-0.591013 0,-0.255574 -0.09584,-0.495174 -0.09584,-0.255573 -0.303491,-0.43128 -0.191681,-0.19168 -0.479201,-0.207652 l -0.926451,0 q -0.159733,1.038266 -0.559067,1.96472 -0.463228,0.942425 -1.277867,1.517465 -0.798667,0.559067 -1.693173,0.622961 l -1.421627,0 Q 7.9461132,17.775686 7.2273132,17.328426 6.524487,16.881172 6.2209932,16.210291 5.9174995,15.52344 5.9174995,14.80464 q 0,-0.702828 0.3034937,-1.373708 0.3194663,-0.686853 1.0222938,-1.134106 0.7028262,-0.447253 1.645252,-0.495173 l 0.191681,0 0,-0.942427 -2.8592268,0 0,-2.0126398 z M 11.284541,15.47552 q 0.351412,-0.399334 0.52712,-0.926454 0.127787,-0.415306 0.207652,-0.894506 l -1.102158,0 0,2.124452 q 0.207652,-0.111813 0.367386,-0.303492 z M 8.760754,13.65456 q -0.287519,0.01598 -0.495173,0.207652 -0.19168,0.175707 -0.2875205,0.43128 -0.095837,0.2396 -0.095837,0.495174 0,0.255573 0.095837,0.511147 0.095839,0.239598 0.2875205,0.431279 0.207654,0.19168 0.495173,0.19168 l 0.319467,0 0,-2.268212 -0.319467,0 z"
     style="font-style:normal;font-variant:normal;font-weight:normal;font-stretch:normal;font-size:medium;line-height:125%;font-family:NicoKaku;-inkscape-font-specification:NicoKaku;letter-spacing:0px;word-spacing:0px;fill:#000000;fill-opacity:1;stroke:none;stroke-width:1px;stroke-linecap:butt;stroke-linejoin:miter;stroke-opacity:1;opacity:0.15"
     id="path4278"
     inkscape:connector-curvature="0" />
  <path
     inkscape:connector-curvature="0"
     id="path4280"
     style="font-style:normal;font-variant:normal;font-weight:normal;font-stretch:normal;font-size:medium;line-height:125%;font-family:NicoKaku;-inkscape-font-specification:NicoKaku;letter-spacing:0px;word-spacing:0px;fill:none;fill-opacity:1;stroke:#000000;stroke-width:2;stroke-linecap:butt;stroke-linejoin:miter;stroke-opacity:1;opacity:0.05;stroke-miterlimit:4;stroke-dasharray:none"
     d="m 6.2209945,8.8465862 2.8592265,0 0,-0.8465866 1.852906,0 -0.01598,0.8465866 6.197651,0 0,2.0126398 -6.197652,0 0,0.942427 3.434266,0 q 1.198001,0.04792 1.900829,0.495173 0.702826,0.447253 1.00632,1.134106 0.319465,0.67088 0.319465,1.373708 0,0.942426 -0.399332,1.725118 -0.399333,0.782693 -1.118135,1.134108 -0.702825,0.351412 -1.613307,0.33544 l -0.894505,0 0,-1.836934 0.990346,0 q 0.287521,0 0.57504,-0.223626 0.303496,-0.223627 0.399335,-0.559067 0.09584,-0.33544 0.09584,-0.591013 0,-0.255574 -0.09584,-0.495174 -0.09584,-0.255573 -0.303491,-0.43128 -0.191681,-0.19168 -0.479201,-0.207652 l -0.926451,0 q -0.159733,1.038266 -0.559067,1.96472 -0.463228,0.942425 -1.277867,1.517465 -0.798667,0.559067 -1.693173,0.622961 l -1.421627,0 Q 7.9461132,17.775686 7.2273132,17.328426 6.524487,16.881172 6.2209932,16.210291 5.9174995,15.52344 5.9174995,14.80464 q 0,-0.702828 0.3034937,-1.373708 0.3194663,-0.686853 1.0222938,-1.134106 0.7028262,-0.447253 1.645252,-0.495173 l 0.191681,0 0,-0.942427 -2.8592268,0 0,-2.0126398 z M 11.284541,15.47552 q 0.351412,-0.399334 0.52712,-0.926454 0.127787,-0.415306 0.207652,-0.894506 l -1.102158,0 0,2.124452 q 0.207652,-0.111813 0.367386,-0.303492 z M 8.760754,13.65456 q -0.287519,0.01598 -0.495173,0.207652 -0.19168,0.175707 -0.2875205,0.43128 -0.095837,0.2396 -0.095837,0.495174 0,0.255573 0.095837,0.511147 0.095839,0.239598 0.2875205,0.431279 0.207654,0.19168 0.495173,0.19168 l 0.319467,0 0,-2.268212 -0.319467,0 z" />
  <path
     inkscape:connector-curvature="0"
     id="path4274"
     style="font-style:normal;font-variant:normal;font-weight:normal;font-stretch:normal;font-size:medium;line-height:125%;font-family:NicoKaku;-inkscape-font-specification:NicoKaku;letter-spacing:0px;word-spacing:0px;fill:#ffffff;fill-opacity:1;stroke:none;stroke-width:1px;stroke-linecap:butt;stroke-linejoin:miter;stroke-opacity:1"
     d="m 6.2143208,7.8465866 2.8592265,0 0,-0.8465866 1.8529057,0 -0.01598,0.8465866 6.197651,0 0,2.012639 -6.197652,0 0,0.9424274 3.434266,0 q 1.198001,0.04792 1.900829,0.495173 0.702826,0.447253 1.00632,1.134106 0.319466,0.67088 0.319466,1.373708 0,0.942426 -0.399333,1.725118 -0.399333,0.782693 -1.118134,1.134108 -0.702826,0.351412 -1.613307,0.33544 l -0.894505,0 0,-1.836934 0.990346,0 q 0.28752,0 0.575039,-0.223626 0.303496,-0.223627 0.399335,-0.559067 0.09584,-0.33544 0.09584,-0.591013 0,-0.255574 -0.09584,-0.495174 -0.09584,-0.255573 -0.303491,-0.43128 -0.191681,-0.19168 -0.479201,-0.207652 l -0.926451,0 q -0.159733,1.038266 -0.559067,1.96472 -0.463228,0.942425 -1.277867,1.517465 -0.798666,0.559067 -1.693172,0.622961 l -1.4216277,0 Q 7.9394394,16.775686 7.2206395,16.328426 6.5178133,15.881172 6.2143195,15.210291 5.9108258,14.52344 5.9108258,13.80464 q 0,-0.702828 0.3034937,-1.373708 0.3194663,-0.686853 1.0222938,-1.134106 0.7028261,-0.447253 1.645252,-0.495173 l 0.191681,0 0,-0.9424274 -2.8592269,0 0,-2.012639 z M 11.277867,14.47552 q 0.351412,-0.399334 0.52712,-0.926454 0.127787,-0.415306 0.207652,-0.894506 l -1.102158,0 0,2.124452 q 0.207652,-0.111813 0.367386,-0.303492 z M 8.7540803,12.65456 q -0.287519,0.01598 -0.495173,0.207652 -0.19168,0.175707 -0.2875205,0.43128 -0.095837,0.2396 -0.095837,0.495174 0,0.255573 0.095837,0.511147 0.095839,0.239598 0.2875205,0.431279 0.207654,0.19168 0.495173,0.19168 l 0.319467,0 0,-2.268212 -0.319467,0 z" />
</svg>
