<?xml version="1.0" encoding="UTF-8" standalone="no"?>
<svg
   xmlns:dc="http://purl.org/dc/elements/1.1/"
   xmlns:cc="http://creativecommons.org/ns#"
   xmlns:rdf="http://www.w3.org/1999/02/22-rdf-syntax-ns#"
   xmlns:svg="http://www.w3.org/2000/svg"
   xmlns="http://www.w3.org/2000/svg"
   xmlns:xlink="http://www.w3.org/1999/xlink"
   xmlns:sodipodi="http://sodipodi.sourceforge.net/DTD/sodipodi-0.dtd"
   xmlns:inkscape="http://www.inkscape.org/namespaces/inkscape"
   id="svg4505"
   height="32"
   width="32"
   version="1.1"
   inkscape:version="0.91 r13725"
   sodipodi:docname="system-os-installer.svg">
  <sodipodi:namedview
     pagecolor="#ffffff"
     bordercolor="#666666"
     borderopacity="1"
     objecttolerance="10"
     gridtolerance="10000"
     guidetolerance="10"
     inkscape:pageopacity="0"
     inkscape:pageshadow="2"
     inkscape:window-width="1366"
     inkscape:window-height="705"
     id="namedview49"
     showgrid="true"
     inkscape:snap-bbox="true"
     inkscape:bbox-paths="true"
     inkscape:snap-bbox-edge-midpoints="true"
     inkscape:bbox-nodes="true"
     inkscape:snap-bbox-midpoints="true"
     inkscape:object-paths="true"
     inkscape:snap-intersection-paths="true"
     inkscape:snap-smooth-nodes="true"
     inkscape:object-nodes="true"
     inkscape:snap-midpoints="true"
     inkscape:snap-object-midpoints="true"
     inkscape:snap-center="true"
     inkscape:snap-text-baseline="true"
     inkscape:snap-page="true"
     inkscape:snap-global="true"
     inkscape:zoom="1.3037281"
     inkscape:cx="0.41689413"
     inkscape:cy="105.53929"
     inkscape:window-x="0"
     inkscape:window-y="30"
     inkscape:window-maximized="1"
     inkscape:current-layer="svg4505">
    <inkscape:grid
       type="xygrid"
       id="grid4260" />
  </sodipodi:namedview>
  <defs
     id="defs4507">
    <linearGradient
       id="linearGradient3820-7-2-2">
      <stop
         offset="0"
         style="stop-color:#3d3d3d;stop-opacity:1"
         id="stop3822-2-6-36" />
      <stop
         offset="0.5"
         style="stop-color:#686868;stop-opacity:0.49803922"
         id="stop3864-8-7-6" />
      <stop
         offset="1"
         style="stop-color:#686868;stop-opacity:0"
         id="stop3824-1-2-4" />
    </linearGradient>
    <radialGradient
       gradientTransform="matrix(0.17524541,0,0,0.05575992,-1.37681,18.119145)"
       gradientUnits="userSpaceOnUse"
       xlink:href="#linearGradient3820-7-2-2"
       id="radialGradient3043"
       fy="186.17059"
       fx="99.157013"
       r="62.769119"
       cy="186.17059"
       cx="99.157013" />
    <linearGradient
       gradientTransform="matrix(0.72972969,0,0,0.72972969,-36.346077,-2.5039312)"
       gradientUnits="userSpaceOnUse"
       xlink:href="#linearGradient4011"
       id="linearGradient3012"
       y2="44.340794"
       x2="71.204407"
       y1="6.2375584"
       x1="71.204407" />
    <linearGradient
       id="linearGradient4011">
      <stop
         offset="0"
         style="stop-color:#ffffff;stop-opacity:1"
         id="stop4013" />
      <stop
         offset="0.507761"
         style="stop-color:#ffffff;stop-opacity:0.23529412"
         id="stop4015" />
      <stop
         offset="0.83456558"
         style="stop-color:#ffffff;stop-opacity:0.15686275"
         id="stop4017" />
      <stop
         offset="1"
         style="stop-color:#ffffff;stop-opacity:0.39215687"
         id="stop4019" />
    </linearGradient>
    <linearGradient
       id="linearGradient2867-449-88-871-390-598-476-591-434-148-57-177-3-8-8">
      <stop
         offset="0"
         style="stop-color:#90dbec;stop-opacity:1"
         id="stop3750-8-9-0" />
      <stop
         offset="0.26238"
         style="stop-color:#42baea;stop-opacity:1"
         id="stop3752-3-2-2" />
      <stop
         offset="0.704952"
         style="stop-color:#3689e6;stop-opacity:1"
         id="stop3754-7-2-2-9" />
      <stop
         offset="1"
         style="stop-color:#2b63a0;stop-opacity:1"
         id="stop3756-9-3-05" />
    </linearGradient>
    <linearGradient
       id="linearGradient4632-92-3-0-8-1-6-6">
      <stop
         offset="0"
         style="stop-color:#fafafa;stop-opacity:1"
         id="stop4634-68-8-0-2-9-1-1" />
      <stop
         offset="1"
         style="stop-color:#e1e1e1;stop-opacity:1"
         id="stop4636-8-21-7-1-4-9-4" />
    </linearGradient>
    <linearGradient
       id="linearGradient4011-7-8">
      <stop
         offset="0"
         style="stop-color:#ffffff;stop-opacity:1"
         id="stop4013-4" />
      <stop
         offset="0.507761"
         style="stop-color:#ffffff;stop-opacity:0.23529412"
         id="stop4015-61" />
      <stop
         offset="0.83456558"
         style="stop-color:#ffffff;stop-opacity:0.15686275"
         id="stop4017-2" />
      <stop
         offset="1"
         style="stop-color:#ffffff;stop-opacity:0.39215687"
         id="stop4019-2" />
    </linearGradient>
    <linearGradient
       gradientTransform="matrix(0.35135134,0,0,0.35135134,-1.203669,15.0907)"
       gradientUnits="userSpaceOnUse"
       xlink:href="#linearGradient4011-7-8"
       id="linearGradient3364"
       y2="42.883553"
       x2="71.204407"
       y1="7.8309216"
       x1="71.204407" />
    <radialGradient
       gradientTransform="matrix(0,0.85326058,-0.90264791,-2.322444e-8,31.627204,11.645694)"
       gradientUnits="userSpaceOnUse"
       xlink:href="#linearGradient4632-92-3-0-8-1-6-6"
       id="radialGradient3370"
       fy="8.4497671"
       fx="6.2751122"
       r="19.99999"
       cy="8.4497671"
       cx="6.2751122" />
    <radialGradient
       gradientTransform="matrix(0,3.5365871,-3.741287,-9.6260457e-8,47.613087,-13.699891)"
       gradientUnits="userSpaceOnUse"
       xlink:href="#linearGradient2867-449-88-871-390-598-476-591-434-148-57-177-3-8-8-2"
       id="radialGradient3386"
       fy="8.4497671"
       fx="1.1978998"
       r="19.99999"
       cy="8.4497671"
       cx="1.1978998" />
    <linearGradient
       gradientTransform="matrix(0.80749834,0,0,0.83374395,46.322988,-10.009944)"
       gradientUnits="userSpaceOnUse"
       xlink:href="#linearGradient3104-8-8-97-4-6-2-0-1-4-0-5-8-3-9-1-4"
       id="linearGradient3373-2"
       y2="5.1757793"
       x2="-95.837799"
       y1="54.199703"
       x1="-95.837799" />
    <linearGradient
       id="linearGradient3104-8-8-97-4-6-2-0-1-4-0-5-8-3-9-1-4">
      <stop
         offset="0"
         style="stop-color:#000000;stop-opacity:0.32173914"
         id="stop3106-5-4-3-5-0-1-61-9-2-7-3-3-2-6-9-2" />
      <stop
         offset="1"
         style="stop-color:#000000;stop-opacity:0.27826086"
         id="stop3108-4-3-7-8-2-4-01-9-9-0-6-4-3-7-7-3" />
    </linearGradient>
    <linearGradient
       x1="71.204407"
       y1="15.369057"
       x2="71.204407"
       y2="40.495617"
       id="linearGradient3097"
       xlink:href="#linearGradient4806-9"
       gradientUnits="userSpaceOnUse"
       gradientTransform="matrix(0.77562456,0,0,0.77562491,-73.879871,-6.1142608)" />
    <linearGradient
       id="linearGradient4806-9">
      <stop
         id="stop4808-49"
         style="stop-color:#ffffff;stop-opacity:1"
         offset="0" />
      <stop
         id="stop4810-05"
         style="stop-color:#ffffff;stop-opacity:0.23529412"
         offset="0.42447853" />
      <stop
         id="stop4812-6"
         style="stop-color:#ffffff;stop-opacity:0.15686275"
         offset="0.82089913" />
      <stop
         id="stop4814-7"
         style="stop-color:#ffffff;stop-opacity:0.39215687"
         offset="1" />
    </linearGradient>
    <radialGradient
       cx="99.157013"
       cy="186.17059"
       r="62.769119"
       fx="99.157013"
       fy="186.17059"
       id="radialGradient3108"
       xlink:href="#linearGradient3820-7-2-2"
       gradientUnits="userSpaceOnUse"
       gradientTransform="matrix(0.11151981,0,0,0.03548359,-28.956276,18.666729)" />
    <linearGradient
       gradientTransform="matrix(0.21621622,0,0,0.21621622,2.9900492,13.017354)"
       gradientUnits="userSpaceOnUse"
       xlink:href="#linearGradient4011"
       id="linearGradient3364-8"
       y2="42.883553"
       x2="71.204407"
       y1="7.8309216"
       x1="71.204407" />
    <radialGradient
       gradientTransform="matrix(0,0.5485247,-0.58027369,-1.4929998e-8,23.403203,10.557946)"
       gradientUnits="userSpaceOnUse"
       xlink:href="#linearGradient4632-92-3-0-8-1-6-6"
       id="radialGradient3370-2"
       fy="8.4497671"
       fx="6.2751122"
       r="19.99999"
       cy="8.4497671"
       cx="6.2751122" />
    <linearGradient
       gradientTransform="matrix(0.53833223,0,0,0.5558293,33.381992,-4.173296)"
       gradientUnits="userSpaceOnUse"
       xlink:href="#linearGradient3104-8-8-97-4-6-2-0-1-4-0-5-8-3-9-1-4"
       id="linearGradient3373-2-5"
       y2="5.1757793"
       x2="-95.837799"
       y1="54.199703"
       x1="-95.837799" />
    <radialGradient
       cx="1.1978998"
       cy="8.4497671"
       r="19.99999"
       fx="1.1978998"
       fy="8.4497671"
       id="radialGradient3386-2"
       xlink:href="#linearGradient2867-449-88-871-390-598-476-591-434-148-57-177-3-8-8-2"
       gradientUnits="userSpaceOnUse"
       gradientTransform="matrix(0,2.5609769,-2.7092078,-6.9705848e-8,4.99393,-6.0088664)" />
    <linearGradient
       x1="71.204407"
       y1="15.369057"
       x2="71.204407"
       y2="40.495617"
       id="linearGradient3097-2"
       xlink:href="#linearGradient4806-9"
       gradientUnits="userSpaceOnUse"
       gradientTransform="matrix(0.53069046,0,0,0.53069075,-63.930295,-12.042942)" />
    <linearGradient
       gradientTransform="matrix(0.16216217,0,0,0.16216217,-0.1324634,7.3880156)"
       gradientUnits="userSpaceOnUse"
       xlink:href="#linearGradient4011"
       id="linearGradient3364-8-6"
       y2="42.883553"
       x2="71.204407"
       y1="7.8309216"
       x1="71.204407" />
    <radialGradient
       gradientTransform="matrix(0,0.42663032,-0.45132398,-1.1612221e-8,15.313602,5.3228469)"
       gradientUnits="userSpaceOnUse"
       xlink:href="#linearGradient4632-92-3-0-8-1-6-6"
       id="radialGradient3370-2-0"
       fy="8.4497671"
       fx="6.2751122"
       r="19.99999"
       cy="8.4497671"
       cx="6.2751122" />
    <linearGradient
       gradientTransform="matrix(0.43066578,0,0,0.44466344,23.405594,-6.6386368)"
       gradientUnits="userSpaceOnUse"
       xlink:href="#linearGradient3104-8-8-97-4-6-2-0-1-4-0-5-8-3-9-1-4"
       id="linearGradient3373-2-5-6"
       y2="5.1757793"
       x2="-95.837799"
       y1="54.199703"
       x1="-95.837799" />
    <linearGradient
       id="linearGradient2867-449-88-871-390-598-476-591-434-148-57-177-3-8-8-2">
      <stop
         offset="0"
         style="stop-color:#ec9090;stop-opacity:1"
         id="stop3750-8-9-0-6" />
      <stop
         offset="0.26238"
         style="stop-color:#ea4242;stop-opacity:1"
         id="stop3752-3-2-2-1" />
      <stop
         offset="0.704952"
         style="stop-color:#e63636;stop-opacity:1"
         id="stop3754-7-2-2-9-8" />
      <stop
         offset="1"
         style="stop-color:#a02b2b;stop-opacity:1"
         id="stop3756-9-3-05-7" />
    </linearGradient>
    <radialGradient
       gradientTransform="matrix(0,1.8292692,-1.9351484,-4.9789892e-8,-9.275522,-12.61625)"
       gradientUnits="userSpaceOnUse"
       xlink:href="#linearGradient2867-449-88-871-390-598-476-591-434-148-57-177-3-8-8-2"
       id="radialGradient3386-9"
       fy="8.4497671"
       fx="1.1978998"
       r="19.99999"
       cy="8.4497671"
       cx="1.1978998" />
  </defs>
  <metadata
     id="metadata4510">
    <rdf:RDF>
      <cc:Work
         rdf:about="">
        <dc:format>image/svg+xml</dc:format>
        <dc:type
           rdf:resource="http://purl.org/dc/dcmitype/StillImage" />
        <dc:title></dc:title>
      </cc:Work>
    </rdf:RDF>
  </metadata>
  <path
     style="fill:url(#radialGradient3043);fill-opacity:1;stroke:none"
     id="path3818-0-2"
     d="m 27.000001,28.499999 a 11,3.4999999 0 1 1 -21.9999996,0 11,3.4999999 0 1 1 21.9999996,0 z" />
  <path
     style="color:#000000;fill:url(#radialGradient3386);fill-opacity:1.0;fill-rule:nonzero;stroke:none;stroke-width:1;marker:none;visibility:visible;display:inline;overflow:visible;enable-background:accumulate"
     id="path2555-72"
     d="M 16.000002,1.4999987 C 7.999402,1.4999987 1.5,7.9993984 1.5,15.999999 1.5,24.000599 7.999402,30.500002 16.000002,30.5 24.000599,30.5 30.500008,24.000599 30.5,15.999999 30.5,7.9993984 24.000599,1.4999987 16.000002,1.4999987 z" />
  <path
     style="opacity:0.5;color:#000000;fill:none;stroke:url(#linearGradient3012);stroke-width:1;stroke-linecap:round;stroke-linejoin:round;stroke-miterlimit:4;stroke-opacity:1;stroke-dasharray:none;stroke-dashoffset:0;marker:none;visibility:visible;display:inline;overflow:visible;enable-background:accumulate"
     id="path8655"
     d="m 29.5,15.999521 c 0,7.456085 -6.044601,13.500478 -13.499829,13.500478 C 8.54426,29.499999 2.5,23.455537 2.5,15.999521 2.5,8.5437813 8.54426,2.5000003 16.000171,2.5000003 23.455399,2.5000003 29.5,8.5437813 29.5,15.999521 l 0,0 z" />
  <path
     style="opacity:0.5;color:#000000;fill:#000000;fill-opacity:0;fill-rule:nonzero;stroke:#7d0000;stroke-width:1;stroke-linecap:round;stroke-linejoin:round;stroke-miterlimit:4;stroke-opacity:1;stroke-dasharray:none;stroke-dashoffset:0;marker:none;visibility:visible;display:inline;overflow:visible;enable-background:accumulate"
     id="path2555-6"
     d="M 16.000002,1.4999991 C 7.999402,1.4999991 1.5,7.9993984 1.5,15.999999 1.5,24.000599 7.999402,30.500002 16.000002,30.5 24.000599,30.5 30.500008,24.000599 30.5,15.999999 30.5,7.9993984 24.000599,1.4999991 16.000002,1.4999991 z" />
  <path
     d="m 8.5549393,11.265007 3.9779947,0 0,-1.177843 2.577917,0 -0.02223,1.177843 8.62269,0 0,2.800151 -8.622692,0 0,1.311184 4.778039,0 q 1.666759,0.06667 2.644592,0.688926 0.97783,0.622255 1.400076,1.577862 0.444468,0.933385 0.444468,1.911218 0,1.311182 -0.555586,2.400128 -0.555585,1.088948 -1.555641,1.577866 Q 21.266737,24.021256 20,23.999034 l -1.24451,0 0,-2.555696 1.377851,0 q 0.400022,0 0.800043,-0.311127 0.422249,-0.311129 0.555588,-0.777821 0.133341,-0.466692 0.133341,-0.822266 0,-0.355576 -0.133341,-0.688928 -0.133341,-0.355575 -0.422242,-0.600033 -0.266681,-0.266681 -0.666702,-0.288903 l -1.288957,0 q -0.222234,1.444523 -0.77782,2.733483 -0.644482,1.311181 -1.777876,2.111224 -1.111171,0.777821 -2.355682,0.866716 l -1.977888,0 Q 10.955068,23.687913 9.955015,23.06565 8.9771827,22.443393 8.5549379,21.510007 8.1326917,20.554403 8.1326917,19.554348 q 0,-0.977833 0.4222448,-1.911218 0.4444692,-0.955607 1.4223015,-1.577862 0.97783,-0.622256 2.289012,-0.688926 l 0.266682,0 0,-1.311184 -3.9779955,0 0,-2.800151 z m 7.0448287,9.222725 q 0.488914,-0.555587 0.733374,-1.28896 0.177788,-0.577808 0.288902,-1.244512 l -1.533414,0 0,2.955716 q 0.288903,-0.155564 0.511138,-0.422244 z M 12.088465,17.95426 q -0.400021,0.02223 -0.688927,0.288903 -0.266681,0.244458 -0.400021,0.600033 -0.133341,0.333352 -0.133341,0.688928 0,0.355574 0.133341,0.71115 0.13334,0.333349 0.400021,0.600031 0.288906,0.266681 0.688927,0.266681 l 0.444469,0 0,-3.155726 -0.444469,0 z"
     style="font-style:normal;font-variant:normal;font-weight:normal;font-stretch:normal;font-size:medium;line-height:125%;font-family:NicoKaku;-inkscape-font-specification:NicoKaku;letter-spacing:0px;word-spacing:0px;fill:#000000;fill-opacity:1;stroke:#000000;stroke-width:2;stroke-linecap:butt;stroke-linejoin:miter;stroke-opacity:1;opacity:0.05;stroke-miterlimit:4;stroke-dasharray:none"
     id="path4295"
     inkscape:connector-curvature="0" />
  <path
     inkscape:connector-curvature="0"
     id="path4293"
     style="font-style:normal;font-variant:normal;font-weight:normal;font-stretch:normal;font-size:medium;line-height:125%;font-family:NicoKaku;-inkscape-font-specification:NicoKaku;letter-spacing:0px;word-spacing:0px;fill:#000000;fill-opacity:1;stroke:none;stroke-width:1px;stroke-linecap:butt;stroke-linejoin:miter;stroke-opacity:1;opacity:0.15"
     d="m 8.5549393,11.265007 3.9779947,0 0,-1.177843 2.577917,0 -0.02223,1.177843 8.62269,0 0,2.800151 -8.622692,0 0,1.311184 4.778039,0 q 1.666759,0.06667 2.644592,0.688926 0.97783,0.622255 1.400076,1.577862 0.444468,0.933385 0.444468,1.911218 0,1.311182 -0.555586,2.400128 -0.555585,1.088948 -1.555641,1.577866 Q 21.266737,24.021256 20,23.999034 l -1.24451,0 0,-2.555696 1.377851,0 q 0.400022,0 0.800043,-0.311127 0.422249,-0.311129 0.555588,-0.777821 0.133341,-0.466692 0.133341,-0.822266 0,-0.355576 -0.133341,-0.688928 -0.133341,-0.355575 -0.422242,-0.600033 -0.266681,-0.266681 -0.666702,-0.288903 l -1.288957,0 q -0.222234,1.444523 -0.77782,2.733483 -0.644482,1.311181 -1.777876,2.111224 -1.111171,0.777821 -2.355682,0.866716 l -1.977888,0 Q 10.955068,23.687913 9.955015,23.06565 8.9771827,22.443393 8.5549379,21.510007 8.1326917,20.554403 8.1326917,19.554348 q 0,-0.977833 0.4222448,-1.911218 0.4444692,-0.955607 1.4223015,-1.577862 0.97783,-0.622256 2.289012,-0.688926 l 0.266682,0 0,-1.311184 -3.9779955,0 0,-2.800151 z m 7.0448287,9.222725 q 0.488914,-0.555587 0.733374,-1.28896 0.177788,-0.577808 0.288902,-1.244512 l -1.533414,0 0,2.955716 q 0.288903,-0.155564 0.511138,-0.422244 z M 12.088465,17.95426 q -0.400021,0.02223 -0.688927,0.288903 -0.266681,0.244458 -0.400021,0.600033 -0.133341,0.333352 -0.133341,0.688928 0,0.355574 0.133341,0.71115 0.13334,0.333349 0.400021,0.600031 0.288906,0.266681 0.688927,0.266681 l 0.444469,0 0,-3.155726 -0.444469,0 z" />
  <path
     d="m 8.5549393,10.265973 3.9779947,0 0,-1.1778428 2.577917,0 -0.02223,1.1778428 8.62269,0 0,2.800151 -8.622692,0 0,1.311184 4.778039,0 q 1.666759,0.06667 2.644592,0.688926 0.97783,0.622255 1.400076,1.577862 0.444468,0.933385 0.444468,1.911218 0,1.311182 -0.555586,2.400128 -0.555585,1.088948 -1.555641,1.577866 Q 21.266737,23.022222 20,23 l -1.24451,0 0,-2.555696 1.377851,0 q 0.400022,0 0.800043,-0.311127 0.422249,-0.311129 0.555588,-0.777821 0.133341,-0.466692 0.133341,-0.822266 0,-0.355576 -0.133341,-0.688928 -0.133341,-0.355575 -0.422242,-0.600033 -0.266681,-0.266681 -0.666702,-0.288903 l -1.288957,0 q -0.222234,1.444523 -0.77782,2.733483 -0.644482,1.311181 -1.777876,2.111224 -1.111171,0.777821 -2.355682,0.866716 l -1.977888,0 q -1.266737,0.02223 -2.26679,-0.600033 -0.9778323,-0.622257 -1.4000771,-1.555643 -0.4222462,-0.955604 -0.4222462,-1.955659 0,-0.977833 0.4222448,-1.911218 0.4444692,-0.955607 1.4223015,-1.577862 0.97783,-0.622256 2.289012,-0.688926 l 0.266682,0 0,-1.311184 -3.9779955,0 0,-2.800151 z m 7.0448287,9.222725 q 0.488914,-0.555587 0.733374,-1.28896 0.177788,-0.577808 0.288902,-1.244512 l -1.533414,0 0,2.955716 q 0.288903,-0.155564 0.511138,-0.422244 z m -3.511303,-2.533472 q -0.400021,0.02223 -0.688927,0.288903 -0.266681,0.244458 -0.400021,0.600033 -0.133341,0.333352 -0.133341,0.688928 0,0.355574 0.133341,0.71115 0.13334,0.333349 0.400021,0.600031 0.288906,0.266681 0.688927,0.266681 l 0.444469,0 0,-3.155726 -0.444469,0 z"
     style="font-style:normal;font-variant:normal;font-weight:normal;font-stretch:normal;font-size:medium;line-height:125%;font-family:NicoKaku;-inkscape-font-specification:NicoKaku;letter-spacing:0px;word-spacing:0px;fill:#ffffff;fill-opacity:1;stroke:none;stroke-width:1px;stroke-linecap:butt;stroke-linejoin:miter;stroke-opacity:1"
     id="path4269"
     inkscape:connector-curvature="0" />
</svg>
