<?xml version="1.0" encoding="UTF-8" standalone="no"?>
<svg
   xmlns:osb="http://www.openswatchbook.org/uri/2009/osb"
   xmlns:dc="http://purl.org/dc/elements/1.1/"
   xmlns:cc="http://creativecommons.org/ns#"
   xmlns:rdf="http://www.w3.org/1999/02/22-rdf-syntax-ns#"
   xmlns:svg="http://www.w3.org/2000/svg"
   xmlns="http://www.w3.org/2000/svg"
   xmlns:xlink="http://www.w3.org/1999/xlink"
   xmlns:sodipodi="http://sodipodi.sourceforge.net/DTD/sodipodi-0.dtd"
   xmlns:inkscape="http://www.inkscape.org/namespaces/inkscape"
   version="1.1"
   width="128"
   height="128"
   id="svg5157"
   inkscape:version="0.91 r13725"
   sodipodi:docname="nihongo.svg">
  <sodipodi:namedview
     pagecolor="#ffffff"
     bordercolor="#666666"
     borderopacity="1"
     objecttolerance="10"
     gridtolerance="10000"
     guidetolerance="10"
     inkscape:pageopacity="0"
     inkscape:pageshadow="2"
     inkscape:window-width="1366"
     inkscape:window-height="705"
     id="namedview39"
     showgrid="true"
     inkscape:snap-perpendicular="true"
     inkscape:snap-tangential="true"
     inkscape:snap-bbox="true"
     inkscape:bbox-paths="true"
     inkscape:bbox-nodes="true"
     inkscape:snap-bbox-edge-midpoints="true"
     inkscape:snap-bbox-midpoints="true"
     inkscape:object-paths="true"
     inkscape:snap-intersection-paths="true"
     inkscape:object-nodes="true"
     inkscape:snap-midpoints="true"
     inkscape:snap-smooth-nodes="true"
     inkscape:snap-object-midpoints="true"
     inkscape:snap-center="true"
     inkscape:snap-text-baseline="true"
     inkscape:snap-page="true"
     inkscape:zoom="1.3037282"
     inkscape:cx="24.988883"
     inkscape:cy="32.044729"
     inkscape:window-x="0"
     inkscape:window-y="30"
     inkscape:window-maximized="1"
     inkscape:current-layer="svg5157">
    <inkscape:grid
       type="xygrid"
       id="grid4171" />
  </sodipodi:namedview>
  <defs
     id="defs5159">
    <linearGradient
       id="linearGradient3820-7-2-8-6">
      <stop
         id="stop3822-2-6-5-0"
         style="stop-color:#3d3d3d;stop-opacity:1"
         offset="0" />
      <stop
         id="stop3864-8-7-4-1"
         style="stop-color:#686868;stop-opacity:0.49803922"
         offset="0.5" />
      <stop
         id="stop3824-1-2-6-7"
         style="stop-color:#686868;stop-opacity:0"
         offset="1" />
    </linearGradient>
    <linearGradient
       id="linearGradient2867-449-88-871-390-598-476-591-434-148-57-177-3-8">
      <stop
         id="stop3750-8-9"
         style="stop-color:#90dbec;stop-opacity:1"
         offset="0" />
      <stop
         id="stop3752-3-2"
         style="stop-color:#42baea;stop-opacity:1"
         offset="0.26238" />
      <stop
         id="stop3754-7-2"
         style="stop-color:#3689e6;stop-opacity:1"
         offset="0.704952" />
      <stop
         id="stop3756-9-3"
         style="stop-color:#2b63a0;stop-opacity:1"
         offset="1" />
    </linearGradient>
    <radialGradient
       xlink:href="#linearGradient3820-7-2-8-6"
       id="radialGradient3163"
       gradientUnits="userSpaceOnUse"
       gradientTransform="matrix(0.6869404,0,0,0.21461693,-4.02174,68.573331)"
       cx="99.157013"
       cy="186.17059"
       fx="99.157013"
       fy="186.17059"
       r="62.769119" />
    <radialGradient
       xlink:href="#linearGradient2867-449-88-871-390-598-476-591-434-148-57-177-3-8-8-2"
       id="radialGradient3197"
       gradientUnits="userSpaceOnUse"
       gradientTransform="matrix(0,6.2723954,-6.6354457,-1.7072495e-7,120.56826,-24.819429)"
       cx="3.9722471"
       cy="8.4497671"
       fx="3.9722471"
       fy="8.4497671"
       r="19.99999" />
    <linearGradient
       id="linearGradient4246">
      <stop
         offset="0"
         style="stop-color:#ffffff;stop-opacity:1"
         id="stop4248" />
      <stop
         offset="0.23521248"
         style="stop-color:#ffffff;stop-opacity:0.23529412"
         id="stop4250" />
      <stop
         offset="0.76404774"
         style="stop-color:#ffffff;stop-opacity:0.15686275"
         id="stop4252" />
      <stop
         offset="1"
         style="stop-color:#ffffff;stop-opacity:0.39215687"
         id="stop4254" />
    </linearGradient>
    <linearGradient
       gradientTransform="matrix(2.7567564,0,0,2.7567564,-133.40784,-4.0633722)"
       gradientUnits="userSpaceOnUse"
       xlink:href="#linearGradient4246"
       id="linearGradient5267"
       y2="44.00914"
       x2="71.204407"
       y1="6.8949885"
       x1="71.204407" />
    <radialGradient
       gradientTransform="matrix(0,9.9313773,-7.8452509,-1.1276038e-7,130.78939,1.4423356)"
       gradientUnits="userSpaceOnUse"
       xlink:href="#linearGradient4223"
       id="radialGradient3126-7-25-24"
       fy="8.449769"
       fx="0.66680855"
       r="19.99999"
       cy="8.449769"
       cx="-1.2645766" />
    <linearGradient
       id="linearGradient4526"
       osb:paint="solid">
      <stop
         style="stop-color:#ffffff;stop-opacity:1;"
         offset="0"
         id="stop4528" />
    </linearGradient>
    <linearGradient
       id="linearGradient4223">
      <stop
         offset="0"
         style="stop-color:#cdf87e;stop-opacity:1"
         id="stop4225" />
      <stop
         offset="0.26238"
         style="stop-color:#a2e34f;stop-opacity:1"
         id="stop4227" />
      <stop
         offset="0.66093999"
         style="stop-color:#68b723;stop-opacity:1"
         id="stop4229" />
      <stop
         offset="1"
         style="stop-color:#1d7e0d;stop-opacity:1"
         id="stop4231" />
    </linearGradient>
    <linearGradient
       id="linearGradient4806">
      <stop
         id="stop4808"
         style="stop-color:#ffffff;stop-opacity:1"
         offset="0" />
      <stop
         id="stop4810"
         style="stop-color:#ffffff;stop-opacity:0.23529412"
         offset="0.42447853" />
      <stop
         id="stop4812"
         style="stop-color:#ffffff;stop-opacity:0.15686275"
         offset="0.82089913" />
      <stop
         id="stop4814"
         style="stop-color:#ffffff;stop-opacity:0.39215687"
         offset="1" />
    </linearGradient>
    <linearGradient
       x1="71.204407"
       y1="15.369057"
       x2="71.204407"
       y2="40.495617"
       id="linearGradient3293"
       xlink:href="#linearGradient4806"
       gradientUnits="userSpaceOnUse"
       gradientTransform="matrix(2.3268746,0,0,2.3268746,-192.08034,-65.30041)" />
    <linearGradient
       id="linearGradient23419">
      <stop
         id="stop23421"
         style="stop-color:#000000;stop-opacity:1"
         offset="0" />
      <stop
         id="stop23423"
         style="stop-color:#000000;stop-opacity:0"
         offset="1" />
    </linearGradient>
    <linearGradient
       id="linearGradient4632-92-3-0-8-1-6-6">
      <stop
         id="stop4634-68-8-0-2-9-1-1"
         style="stop-color:#fafafa;stop-opacity:1"
         offset="0" />
      <stop
         id="stop4636-8-21-7-1-4-9-4"
         style="stop-color:#e1e1e1;stop-opacity:1"
         offset="1" />
    </linearGradient>
    <linearGradient
       id="linearGradient4011-7-0">
      <stop
         id="stop4013-4"
         style="stop-color:#ffffff;stop-opacity:1"
         offset="0" />
      <stop
         id="stop4015-61"
         style="stop-color:#ffffff;stop-opacity:0.23529412"
         offset="0.507761" />
      <stop
         id="stop4017-2"
         style="stop-color:#ffffff;stop-opacity:0.15686275"
         offset="0.83456558" />
      <stop
         id="stop4019-2"
         style="stop-color:#ffffff;stop-opacity:0.39215687"
         offset="1" />
    </linearGradient>
    <linearGradient
       x1="71.204407"
       y1="7.8309216"
       x2="71.204407"
       y2="42.883553"
       id="linearGradient3306"
       xlink:href="#linearGradient4011-7-0"
       gradientUnits="userSpaceOnUse"
       gradientTransform="matrix(0.72972969,0,0,0.72972969,-4.3460816,29.49607)" />
    <linearGradient
       x1="-95.837799"
       y1="54.199703"
       x2="-95.837799"
       y2="5.1757793"
       id="linearGradient3315"
       xlink:href="#linearGradient23419"
       gradientUnits="userSpaceOnUse"
       gradientTransform="matrix(1.1151168,0,0,1.1513607,154.34934,-4.9719397)" />
    <radialGradient
       cx="1.1978998"
       cy="8.4497671"
       r="19.99999"
       fx="1.1978998"
       fy="8.4497671"
       id="radialGradient3328"
       xlink:href="#linearGradient2867-449-88-871-390-598-476-591-434-148-57-177-3-8-8-2"
       gradientUnits="userSpaceOnUse"
       gradientTransform="matrix(0,7.1951254,-7.6115838,-1.9584024e-7,40.180691,-60.881545)" />
    <radialGradient
       cx="62.625"
       cy="4.625"
       r="10.625"
       fx="62.625"
       fy="4.625"
       id="radialGradient3384"
       xlink:href="#linearGradient23419"
       gradientUnits="userSpaceOnUse"
       gradientTransform="matrix(1.3176471,0,0,0.37647,-34.517651,58.258824)" />
    <radialGradient
       cx="6.2751122"
       cy="8.4497671"
       r="19.99999"
       fx="6.2751122"
       fy="8.4497671"
       id="radialGradient3399"
       xlink:href="#linearGradient4632-92-3-0-8-1-6-6"
       gradientUnits="userSpaceOnUse"
       gradientTransform="matrix(0,1.7065212,-1.8052958,-4.6448879e-8,63.254408,23.291389)" />
    <radialGradient
       xlink:href="#linearGradient23419"
       id="radialGradient3300-9"
       gradientUnits="userSpaceOnUse"
       gradientTransform="matrix(0.3823536,7.5555777e-8,-1.8372241e-8,0.1115198,-5.9254271,36.335849)"
       cx="99.189415"
       cy="185.29727"
       fx="99.189415"
       fy="185.29727"
       r="62.769119" />
    <radialGradient
       xlink:href="#linearGradient23419"
       id="radialGradient4192"
       gradientUnits="userSpaceOnUse"
       gradientTransform="matrix(0.2549024,5.3967361e-8,-1.2248161e-8,0.07965545,6.7163816,44.240666)"
       cx="99.189415"
       cy="185.29727"
       fx="99.189415"
       fy="185.29727"
       r="62.769119" />
    <radialGradient
       gradientTransform="matrix(0.27083381,0,0,0.08762273,-73.227953,16.457749)"
       gradientUnits="userSpaceOnUse"
       xlink:href="#linearGradient3820-7-2-8-6"
       id="radialGradient3018"
       fy="186.17059"
       fx="99.157013"
       r="62.769119"
       cy="186.17059"
       cx="99.157013" />
    <linearGradient
       gradientTransform="matrix(0.5135135,0,0,0.5135135,-0.836132,22.978716)"
       gradientUnits="userSpaceOnUse"
       xlink:href="#linearGradient4011-7-0"
       id="linearGradient3741"
       y2="42.883553"
       x2="71.204407"
       y1="7.8309216"
       x1="71.204407" />
    <radialGradient
       gradientTransform="matrix(1.1294118,0,0,0.2823525,-34.729414,43.694118)"
       gradientUnits="userSpaceOnUse"
       xlink:href="#linearGradient23419"
       id="radialGradient3748"
       fy="4.625"
       fx="62.625"
       r="10.625"
       cy="4.625"
       cx="62.625" />
    <radialGradient
       xlink:href="#linearGradient4632-92-3-0-8-1-6-6"
       id="radialGradient3398"
       gradientUnits="userSpaceOnUse"
       gradientTransform="matrix(0,1.2189437,-1.289497,-3.3177771e-8,46.896006,18.350992)"
       cx="6.2751122"
       cy="8.4497671"
       fx="6.2751122"
       fy="8.4497671"
       r="19.99999" />
    <linearGradient
       xlink:href="#linearGradient23419"
       id="linearGradient4200-6"
       gradientUnits="userSpaceOnUse"
       gradientTransform="matrix(0.80749834,0,0,0.83374395,113.01159,-2.35899)"
       x1="-95.837799"
       y1="54.199703"
       x2="-95.837799"
       y2="5.1757793" />
    <linearGradient
       y2="44.340794"
       x2="71.204407"
       y1="6.2375584"
       x1="71.204407"
       gradientTransform="matrix(1.054054,0,0,1.054054,-121.98389,-11.45738)"
       gradientUnits="userSpaceOnUse"
       id="linearGradient3540"
       xlink:href="#linearGradient4011-7-0" />
    <radialGradient
       r="19.99999"
       fy="8.4497671"
       fx="1.1978998"
       cy="8.4497671"
       cx="1.1978998"
       gradientTransform="matrix(0,5.0000024,-5.2894057,-1.3609237e-7,-1.678517,-26.71898)"
       gradientUnits="userSpaceOnUse"
       id="radialGradient3543"
       xlink:href="#linearGradient2867-449-88-871-390-598-476-591-434-148-57-177-3-8-8-2" />
    <radialGradient
       cx="99.157013"
       cy="186.17059"
       r="62.769119"
       fx="99.157013"
       fy="186.17059"
       id="radialGradient3043"
       xlink:href="#linearGradient3820-7-2-8-6"
       gradientUnits="userSpaceOnUse"
       gradientTransform="matrix(0.17524541,0,0,0.05575992,-44.834437,39.449321)" />
    <linearGradient
       x1="71.204407"
       y1="6.2375584"
       x2="71.204407"
       y2="44.340794"
       id="linearGradient3012"
       xlink:href="#linearGradient4011-7-0"
       gradientUnits="userSpaceOnUse"
       gradientTransform="matrix(0.72972969,0,0,0.72972969,-79.803704,18.826245)" />
    <linearGradient
       x1="71.204407"
       y1="7.8309216"
       x2="71.204407"
       y2="42.883553"
       id="linearGradient3364"
       xlink:href="#linearGradient4011-7-0"
       gradientUnits="userSpaceOnUse"
       gradientTransform="matrix(0.35135134,0,0,0.35135134,-1.203669,15.0907)" />
    <radialGradient
       cx="6.2751122"
       cy="8.4497671"
       r="19.99999"
       fx="6.2751122"
       fy="8.4497671"
       id="radialGradient3370"
       xlink:href="#linearGradient4632-92-3-0-8-1-6-6"
       gradientUnits="userSpaceOnUse"
       gradientTransform="matrix(0,0.85326058,-0.90264791,-2.322444e-8,31.627204,11.645694)" />
    <radialGradient
       cx="1.1978998"
       cy="8.4497671"
       r="19.99999"
       fx="1.1978998"
       fy="8.4497671"
       id="radialGradient3386"
       xlink:href="#linearGradient2867-449-88-871-390-598-476-591-434-148-57-177-3-8-8-2"
       gradientUnits="userSpaceOnUse"
       gradientTransform="matrix(0,3.5365871,-3.741287,-9.6260457e-8,4.15546,7.630285)" />
    <linearGradient
       x1="-95.837799"
       y1="54.199703"
       x2="-95.837799"
       y2="5.1757793"
       id="linearGradient3373-2"
       xlink:href="#linearGradient23419"
       gradientUnits="userSpaceOnUse"
       gradientTransform="matrix(0.80749834,0,0,0.83374395,46.322988,-10.009944)" />
    <linearGradient
       gradientTransform="matrix(0.77562456,0,0,0.77562491,-73.879871,-6.1142608)"
       gradientUnits="userSpaceOnUse"
       xlink:href="#linearGradient4806"
       id="linearGradient3097"
       y2="40.495617"
       x2="71.204407"
       y1="15.369057"
       x1="71.204407" />
    <radialGradient
       gradientTransform="matrix(0.11151981,0,0,0.03548359,-28.956276,18.666729)"
       gradientUnits="userSpaceOnUse"
       xlink:href="#linearGradient3820-7-2-8-6"
       id="radialGradient3108"
       fy="186.17059"
       fx="99.157013"
       r="62.769119"
       cy="186.17059"
       cx="99.157013" />
    <linearGradient
       x1="71.204407"
       y1="7.8309216"
       x2="71.204407"
       y2="42.883553"
       id="linearGradient3364-8"
       xlink:href="#linearGradient4011-7-0"
       gradientUnits="userSpaceOnUse"
       gradientTransform="matrix(0.21621622,0,0,0.21621622,2.9900492,13.017354)" />
    <radialGradient
       cx="6.2751122"
       cy="8.4497671"
       r="19.99999"
       fx="6.2751122"
       fy="8.4497671"
       id="radialGradient3370-2"
       xlink:href="#linearGradient4632-92-3-0-8-1-6-6"
       gradientUnits="userSpaceOnUse"
       gradientTransform="matrix(0,0.5485247,-0.58027369,-1.4929998e-8,23.403203,10.557946)" />
    <linearGradient
       x1="-95.837799"
       y1="54.199703"
       x2="-95.837799"
       y2="5.1757793"
       id="linearGradient3373-2-5"
       xlink:href="#linearGradient23419"
       gradientUnits="userSpaceOnUse"
       gradientTransform="matrix(0.53833223,0,0,0.5558293,33.381992,-4.173296)" />
    <radialGradient
       gradientTransform="matrix(0,2.5609769,-2.7092078,-6.9705848e-8,4.99393,-6.0088664)"
       gradientUnits="userSpaceOnUse"
       xlink:href="#linearGradient2867-449-88-871-390-598-476-591-434-148-57-177-3-8-8-2"
       id="radialGradient3386-2"
       fy="8.4497671"
       fx="1.1978998"
       r="19.99999"
       cy="8.4497671"
       cx="1.1978998" />
    <linearGradient
       gradientTransform="matrix(0.53069046,0,0,0.53069075,-63.930295,-12.042942)"
       gradientUnits="userSpaceOnUse"
       xlink:href="#linearGradient4806"
       id="linearGradient3097-2"
       y2="40.495617"
       x2="71.204407"
       y1="15.369057"
       x1="71.204407" />
    <linearGradient
       x1="71.204407"
       y1="7.8309216"
       x2="71.204407"
       y2="42.883553"
       id="linearGradient3364-8-6"
       xlink:href="#linearGradient4011-7-0"
       gradientUnits="userSpaceOnUse"
       gradientTransform="matrix(0.16216217,0,0,0.16216217,-0.1324634,7.3880156)" />
    <radialGradient
       cx="6.2751122"
       cy="8.4497671"
       r="19.99999"
       fx="6.2751122"
       fy="8.4497671"
       id="radialGradient3370-2-0"
       xlink:href="#linearGradient4632-92-3-0-8-1-6-6"
       gradientUnits="userSpaceOnUse"
       gradientTransform="matrix(0,0.42663032,-0.45132398,-1.1612221e-8,15.313602,5.3228469)" />
    <linearGradient
       x1="-95.837799"
       y1="54.199703"
       x2="-95.837799"
       y2="5.1757793"
       id="linearGradient3373-2-5-6"
       xlink:href="#linearGradient23419"
       gradientUnits="userSpaceOnUse"
       gradientTransform="matrix(0.43066578,0,0,0.44466344,23.405594,-6.6386368)" />
    <linearGradient
       id="linearGradient2867-449-88-871-390-598-476-591-434-148-57-177-3-8-8-2">
      <stop
         id="stop3750-8-9-0-6"
         style="stop-color:#ec9090;stop-opacity:1"
         offset="0" />
      <stop
         id="stop3752-3-2-2-1"
         style="stop-color:#ea4242;stop-opacity:1"
         offset="0.26238" />
      <stop
         id="stop3754-7-2-2-9-8"
         style="stop-color:#e63636;stop-opacity:1"
         offset="0.704952" />
      <stop
         id="stop3756-9-3-05-7"
         style="stop-color:#a02b2b;stop-opacity:1"
         offset="1" />
    </linearGradient>
    <radialGradient
       cx="1.1978998"
       cy="8.4497671"
       r="19.99999"
       fx="1.1978998"
       fy="8.4497671"
       id="radialGradient3386-9"
       xlink:href="#linearGradient2867-449-88-871-390-598-476-591-434-148-57-177-3-8-8-2"
       gradientUnits="userSpaceOnUse"
       gradientTransform="matrix(0,1.8292692,-1.9351484,-4.9789892e-8,-9.275522,-12.61625)" />
    <radialGradient
       cx="99.157013"
       cy="186.17059"
       r="62.769119"
       fx="99.157013"
       fy="186.17059"
       id="radialGradient3043-3"
       xlink:href="#linearGradient3820-7-2-8-6"
       gradientUnits="userSpaceOnUse"
       gradientTransform="matrix(0.17524541,0,0,0.05575992,-1.37681,18.119145)" />
    <linearGradient
       x1="71.204407"
       y1="6.2375584"
       x2="71.204407"
       y2="44.340794"
       id="linearGradient3012-6"
       xlink:href="#linearGradient4011-7-0"
       gradientUnits="userSpaceOnUse"
       gradientTransform="matrix(0.72972969,0,0,0.72972969,-36.346077,-2.5039312)" />
    <radialGradient
       cx="6.2751122"
       cy="8.4497671"
       r="19.99999"
       fx="6.2751122"
       fy="8.4497671"
       id="radialGradient3370-7"
       xlink:href="#linearGradient4632-92-3-0-8-1-6-6"
       gradientUnits="userSpaceOnUse"
       gradientTransform="matrix(0,0.85326058,-0.90264791,-2.322444e-8,31.627204,11.645694)" />
    <radialGradient
       cx="1.1978998"
       cy="8.4497671"
       r="19.99999"
       fx="1.1978998"
       fy="8.4497671"
       id="radialGradient3386-0"
       xlink:href="#linearGradient2867-449-88-871-390-598-476-591-434-148-57-177-3-8-8-2"
       gradientUnits="userSpaceOnUse"
       gradientTransform="matrix(0,3.5365871,-3.741287,-9.6260457e-8,47.613087,-13.699891)" />
    <radialGradient
       gradientTransform="matrix(0.11151981,0,0,0.03548359,-28.956276,18.666729)"
       gradientUnits="userSpaceOnUse"
       xlink:href="#linearGradient3820-7-2-8-6"
       id="radialGradient3108-6"
       fy="186.17059"
       fx="99.157013"
       r="62.769119"
       cy="186.17059"
       cx="99.157013" />
    <radialGradient
       cx="6.2751122"
       cy="8.4497671"
       r="19.99999"
       fx="6.2751122"
       fy="8.4497671"
       id="radialGradient3370-2-2"
       xlink:href="#linearGradient4632-92-3-0-8-1-6-6"
       gradientUnits="userSpaceOnUse"
       gradientTransform="matrix(0,0.5485247,-0.58027369,-1.4929998e-8,23.403203,10.557946)" />
    <radialGradient
       gradientTransform="matrix(0,2.5609769,-2.7092078,-6.9705848e-8,4.99393,-6.0088664)"
       gradientUnits="userSpaceOnUse"
       xlink:href="#linearGradient2867-449-88-871-390-598-476-591-434-148-57-177-3-8-8-2"
       id="radialGradient3386-2-6"
       fy="8.4497671"
       fx="1.1978998"
       r="19.99999"
       cy="8.4497671"
       cx="1.1978998" />
    <radialGradient
       cx="6.2751122"
       cy="8.4497671"
       r="19.99999"
       fx="6.2751122"
       fy="8.4497671"
       id="radialGradient3370-2-0-1"
       xlink:href="#linearGradient4632-92-3-0-8-1-6-6"
       gradientUnits="userSpaceOnUse"
       gradientTransform="matrix(0,0.42663032,-0.45132398,-1.1612221e-8,15.313602,5.3228469)" />
    <radialGradient
       cx="1.1978998"
       cy="8.4497671"
       r="19.99999"
       fx="1.1978998"
       fy="8.4497671"
       id="radialGradient3386-9-0"
       xlink:href="#linearGradient2867-449-88-871-390-598-476-591-434-148-57-177-3-8-8-2"
       gradientUnits="userSpaceOnUse"
       gradientTransform="matrix(0,1.8292692,-1.9351484,-4.9789892e-8,-9.275522,-12.61625)" />
    <linearGradient
       inkscape:collect="always"
       xlink:href="#linearGradient4246"
       id="linearGradient4351"
       x1="65"
       y1="18"
       x2="65"
       y2="118"
       gradientUnits="userSpaceOnUse" />
  </defs>
  <metadata
     id="metadata5162">
    <rdf:RDF>
      <cc:Work
         rdf:about="">
        <dc:format>image/svg+xml</dc:format>
        <dc:type
           rdf:resource="http://purl.org/dc/dcmitype/StillImage" />
        <dc:title />
      </cc:Work>
    </rdf:RDF>
  </metadata>
  <path
     style="fill:url(#radialGradient3163);fill-opacity:1;stroke:none"
     id="path3818-0-5-0"
     d="m 107.21186,108.52868 a 43.118644,13.471312 0 1 1 -86.237286,0 43.118644,13.471312 0 1 1 86.237286,0 z" />
  <path
     d="m 64.500003,14.540551 c -28.392543,0 -51.457634,23.065081 -51.457634,51.457627 0,28.392546 23.065091,51.457642 51.457634,51.457632 28.392532,0 51.457647,-23.065086 51.457627,-51.457632 0,-28.392546 -23.065095,-51.457627 -51.457627,-51.457627 z"
     id="path2555"
     style="color:#000000;display:inline;overflow:visible;visibility:visible;fill:url(#radialGradient3197);fill-opacity:1.0;fill-rule:nonzero;stroke:none;stroke-width:1;marker:none;enable-background:accumulate"
     inkscape:connector-curvature="0" />
  <path
     style="color:#000000;display:inline;overflow:visible;visibility:visible;opacity:0.3;fill:#000000;fill-opacity:0;fill-rule:nonzero;stroke:#000000;stroke-width:0.98095238;stroke-linecap:round;stroke-linejoin:round;stroke-miterlimit:4;stroke-dasharray:none;stroke-dashoffset:0;stroke-opacity:1;marker:none;enable-background:accumulate"
     id="path2555-7-1"
     d="m 64.5,14.988655 c -28.145295,0 -51.009525,22.864224 -51.009525,51.009521 0,28.145297 22.86423,51.009534 51.009525,51.009524 28.145291,0 51.00954,-22.864227 51.00952,-51.009524 0,-28.145297 -22.864229,-51.009521 -51.00952,-51.009521 z"
     inkscape:connector-curvature="0" />
  <path
     inkscape:connector-curvature="0"
     d="m 64.5,15.962343 c -27.608047,0 -50.035837,22.427784 -50.035837,50.035833 0,27.608049 22.42779,50.035844 50.035837,50.035834 27.608043,0 50.03585,-22.427785 50.03583,-50.035834 0,-27.608049 -22.427787,-50.035833 -50.03583,-50.035833 z"
     id="path4173"
     style="color:#000000;display:inline;overflow:visible;visibility:visible;opacity:0.3;fill:#000000;fill-opacity:0;fill-rule:nonzero;stroke:url(#linearGradient4351);stroke-width:0.96222758;stroke-linecap:round;stroke-linejoin:round;stroke-miterlimit:4;stroke-dasharray:none;stroke-dashoffset:0;stroke-opacity:1;marker:none;enable-background:accumulate" />
  <path
     d="m 33.860641,44.000004 15.914795,0 0,-4.712209 10.313494,0 L 60,44.000004 l 34.496869,0 0,11.202586 -34.496875,0 0,5.245669 19.115542,0 q 6.668214,0.266713 10.580238,2.756188 3.91202,2.489462 5.601295,6.312567 1.778191,3.734201 1.778191,7.646228 0,5.24566 -2.222742,9.602211 -2.222735,4.356571 -6.223667,6.312583 -3.91201,1.956006 -8.979856,1.867099 l -4.978926,0 0,-10.224593 5.512382,0 q 1.600373,0 3.200738,-1.24473 1.689295,-1.244737 2.222746,-3.111837 0.53346,-1.867098 0.53346,-3.289645 0,-1.422559 -0.53346,-2.756201 -0.533453,-1.422553 -1.689265,-2.400559 -1.066909,-1.066912 -2.667282,-1.155817 l -5.156734,0 q -0.889096,5.779117 -3.111836,10.935872 -2.578383,5.245652 -7.112766,8.446391 -4.44547,3.111833 -9.424397,3.467475 l -7.91295,0 q -5.067848,0.08893 -9.068767,-2.400554 -3.912022,-2.489465 -5.601302,-6.223675 -1.689282,-3.823091 -1.689282,-7.82402 0,-3.912027 1.689269,-7.646228 1.778195,-3.823105 5.690219,-6.312567 3.912015,-2.489461 9.15767,-2.756188 l 1.066923,0 0,-5.245669 -15.914812,0 0,-11.202586 z M 62.044943,80.89744 q 1.956007,-2.222742 2.934018,-5.156756 0.711276,-2.311641 1.155812,-4.978931 l -6.134746,0 0,11.824962 q 1.155818,-0.622367 2.044917,-1.689275 z M 47.997244,70.761753 q -1.600366,0.08892 -2.756199,1.155817 -1.066912,0.978006 -1.600366,2.400559 -0.533456,1.333642 -0.533456,2.756201 0,1.422547 0.533456,2.8451 0.533454,1.333634 1.600366,2.400551 1.155833,1.066913 2.756199,1.066913 l 1.77819,0 0,-12.625141 -1.77819,0 z"
     style="font-style:normal;font-variant:normal;font-weight:normal;font-stretch:normal;font-size:medium;line-height:125%;font-family:NicoKaku;-inkscape-font-specification:NicoKaku;letter-spacing:0px;word-spacing:0px;fill:#000000;fill-opacity:1;stroke:none;stroke-width:1px;stroke-linecap:butt;stroke-linejoin:miter;stroke-opacity:1;opacity:0.15"
     id="path4364"
     inkscape:connector-curvature="0" />
  <path
     inkscape:connector-curvature="0"
     id="path4366"
     style="font-style:normal;font-variant:normal;font-weight:normal;font-stretch:normal;font-size:medium;line-height:125%;font-family:NicoKaku;-inkscape-font-specification:NicoKaku;letter-spacing:0px;word-spacing:0px;fill:#000000;fill-opacity:1;stroke:#000000;stroke-width:2;stroke-linecap:butt;stroke-linejoin:miter;stroke-opacity:1;opacity:0.05;stroke-miterlimit:4;stroke-dasharray:none"
     d="m 33.860641,44.000004 15.914795,0 0,-4.712209 10.313494,0 L 60,44.000004 l 34.496869,0 0,11.202586 -34.496875,0 0,5.245669 19.115542,0 q 6.668214,0.266713 10.580238,2.756188 3.91202,2.489462 5.601295,6.312567 1.778191,3.734201 1.778191,7.646228 0,5.24566 -2.222742,9.602211 -2.222735,4.356571 -6.223667,6.312583 -3.91201,1.956006 -8.979856,1.867099 l -4.978926,0 0,-10.224593 5.512382,0 q 1.600373,0 3.200738,-1.24473 1.689295,-1.244737 2.222746,-3.111837 0.53346,-1.867098 0.53346,-3.289645 0,-1.422559 -0.53346,-2.756201 -0.533453,-1.422553 -1.689265,-2.400559 -1.066909,-1.066912 -2.667282,-1.155817 l -5.156734,0 q -0.889096,5.779117 -3.111836,10.935872 -2.578383,5.245652 -7.112766,8.446391 -4.44547,3.111833 -9.424397,3.467475 l -7.91295,0 q -5.067848,0.08893 -9.068767,-2.400554 -3.912022,-2.489465 -5.601302,-6.223675 -1.689282,-3.823091 -1.689282,-7.82402 0,-3.912027 1.689269,-7.646228 1.778195,-3.823105 5.690219,-6.312567 3.912015,-2.489461 9.15767,-2.756188 l 1.066923,0 0,-5.245669 -15.914812,0 0,-11.202586 z M 62.044943,80.89744 q 1.956007,-2.222742 2.934018,-5.156756 0.711276,-2.311641 1.155812,-4.978931 l -6.134746,0 0,11.824962 q 1.155818,-0.622367 2.044917,-1.689275 z M 47.997244,70.761753 q -1.600366,0.08892 -2.756199,1.155817 -1.066912,0.978006 -1.600366,2.400559 -0.533456,1.333642 -0.533456,2.756201 0,1.422547 0.533456,2.8451 0.533454,1.333634 1.600366,2.400551 1.155833,1.066913 2.756199,1.066913 l 1.77819,0 0,-12.625141 -1.77819,0 z" />
  <path
     inkscape:connector-curvature="0"
     id="path4362"
     style="font-style:normal;font-variant:normal;font-weight:normal;font-stretch:normal;font-size:medium;line-height:125%;font-family:NicoKaku;-inkscape-font-specification:NicoKaku;letter-spacing:0px;word-spacing:0px;fill:#ffffff;fill-opacity:1;stroke:none;stroke-width:1px;stroke-linecap:butt;stroke-linejoin:miter;stroke-opacity:1"
     d="m 33.860641,43 15.914795,0 0,-4.712209 10.313494,0 L 60,43 l 34.496869,0 0,11.202586 -34.496875,0 0,5.245669 19.115542,0 q 6.668214,0.266713 10.580238,2.756188 3.91202,2.489462 5.601295,6.312567 1.778191,3.734201 1.778191,7.646228 0,5.24566 -2.222742,9.602211 -2.222735,4.356571 -6.223667,6.312583 -3.91201,1.956006 -8.979856,1.867099 l -4.978926,0 0,-10.224593 5.512382,0 q 1.600373,0 3.200738,-1.24473 1.689295,-1.244737 2.222746,-3.111837 0.53346,-1.867098 0.53346,-3.289645 0,-1.422559 -0.53346,-2.756201 -0.533453,-1.422553 -1.689265,-2.400559 -1.066909,-1.066912 -2.667282,-1.155817 l -5.156734,0 q -0.889096,5.779117 -3.111836,10.935872 -2.578383,5.245652 -7.112766,8.446391 -4.44547,3.111833 -9.424397,3.467475 l -7.91295,0 q -5.067848,0.08893 -9.068767,-2.400554 -3.912022,-2.489465 -5.601302,-6.223675 -1.689282,-3.823091 -1.689282,-7.82402 0,-3.912027 1.689269,-7.646228 1.778195,-3.823105 5.690219,-6.312567 3.912015,-2.489461 9.15767,-2.756188 l 1.066923,0 0,-5.245669 -15.914812,0 0,-11.202586 z m 28.184302,36.897436 q 1.956007,-2.222742 2.934018,-5.156756 0.711276,-2.311641 1.155812,-4.978931 l -6.134746,0 0,11.824962 q 1.155818,-0.622367 2.044917,-1.689275 z M 47.997244,69.761749 q -1.600366,0.08892 -2.756199,1.155817 -1.066912,0.978006 -1.600366,2.400559 -0.533456,1.333642 -0.533456,2.756201 0,1.422547 0.533456,2.8451 0.533454,1.333634 1.600366,2.400551 1.155833,1.066913 2.756199,1.066913 l 1.77819,0 0,-12.625141 -1.77819,0 z" />
</svg>
