<?xml version="1.0" encoding="UTF-8" standalone="no"?>
<svg
   xmlns:dc="http://purl.org/dc/elements/1.1/"
   xmlns:cc="http://creativecommons.org/ns#"
   xmlns:rdf="http://www.w3.org/1999/02/22-rdf-syntax-ns#"
   xmlns:svg="http://www.w3.org/2000/svg"
   xmlns="http://www.w3.org/2000/svg"
   xmlns:xlink="http://www.w3.org/1999/xlink"
   xmlns:sodipodi="http://sodipodi.sourceforge.net/DTD/sodipodi-0.dtd"
   xmlns:inkscape="http://www.inkscape.org/namespaces/inkscape"
   id="svg4505"
   height="16"
   width="16"
   version="1.1"
   inkscape:version="0.91 r13725"
   sodipodi:docname="nihongo.svg">
  <sodipodi:namedview
     pagecolor="#ffffff"
     bordercolor="#666666"
     borderopacity="1"
     objecttolerance="10"
     gridtolerance="10000"
     guidetolerance="10"
     inkscape:pageopacity="0"
     inkscape:pageshadow="2"
     inkscape:window-width="1366"
     inkscape:window-height="705"
     id="namedview43"
     showgrid="true"
     inkscape:snap-bbox="true"
     inkscape:bbox-paths="true"
     inkscape:bbox-nodes="true"
     inkscape:snap-bbox-edge-midpoints="true"
     inkscape:snap-bbox-midpoints="true"
     inkscape:object-paths="true"
     inkscape:snap-intersection-paths="true"
     inkscape:object-nodes="true"
     inkscape:snap-smooth-nodes="true"
     inkscape:snap-midpoints="true"
     inkscape:snap-object-midpoints="true"
     inkscape:snap-center="true"
     inkscape:snap-text-baseline="true"
     inkscape:snap-page="true"
     inkscape:snap-tangential="true"
     inkscape:snap-perpendicular="true"
     inkscape:zoom="10.429825"
     inkscape:cx="-15.966761"
     inkscape:cy="7.2787672"
     inkscape:window-x="0"
     inkscape:window-y="30"
     inkscape:window-maximized="1"
     inkscape:current-layer="svg4505">
    <inkscape:grid
       type="xygrid"
       id="grid4175" />
  </sodipodi:namedview>
  <defs
     id="defs4507">
    <linearGradient
       id="linearGradient4011">
      <stop
         offset="0"
         style="stop-color:#ffffff;stop-opacity:1"
         id="stop4013" />
      <stop
         offset="0.507761"
         style="stop-color:#ffffff;stop-opacity:0.23529412"
         id="stop4015" />
      <stop
         offset="0.83456558"
         style="stop-color:#ffffff;stop-opacity:0.15686275"
         id="stop4017" />
      <stop
         offset="1"
         style="stop-color:#ffffff;stop-opacity:0.39215687"
         id="stop4019" />
    </linearGradient>
    <linearGradient
       id="linearGradient4632-92-3-0-8-1-6-6">
      <stop
         offset="0"
         style="stop-color:#fafafa;stop-opacity:1"
         id="stop4634-68-8-0-2-9-1-1" />
      <stop
         offset="1"
         style="stop-color:#e1e1e1;stop-opacity:1"
         id="stop4636-8-21-7-1-4-9-4" />
    </linearGradient>
    <linearGradient
       id="linearGradient3104-8-8-97-4-6-2-0-1-4-0-5-8-3-9-1-4">
      <stop
         offset="0"
         style="stop-color:#000000;stop-opacity:0.32173914"
         id="stop3106-5-4-3-5-0-1-61-9-2-7-3-3-2-6-9-2" />
      <stop
         offset="1"
         style="stop-color:#000000;stop-opacity:0.27826086"
         id="stop3108-4-3-7-8-2-4-01-9-9-0-6-4-3-7-7-3" />
    </linearGradient>
    <linearGradient
       x1="71.204407"
       y1="15.369057"
       x2="71.204407"
       y2="40.495617"
       id="linearGradient3097"
       xlink:href="#linearGradient4806-9"
       gradientUnits="userSpaceOnUse"
       gradientTransform="matrix(0.53069046,0,0,0.53069075,-30.303176,-6.7887052)" />
    <linearGradient
       id="linearGradient4806-9">
      <stop
         id="stop4808-49"
         style="stop-color:#ffffff;stop-opacity:1"
         offset="0" />
      <stop
         id="stop4810-05"
         style="stop-color:#ffffff;stop-opacity:0.23529412"
         offset="0.42447853" />
      <stop
         id="stop4812-6"
         style="stop-color:#ffffff;stop-opacity:0.15686275"
         offset="0.82089913" />
      <stop
         id="stop4814-7"
         style="stop-color:#ffffff;stop-opacity:0.39215687"
         offset="1" />
    </linearGradient>
    <linearGradient
       gradientTransform="matrix(0.16216217,0,0,0.16216217,-0.1324634,7.3880156)"
       gradientUnits="userSpaceOnUse"
       xlink:href="#linearGradient4011"
       id="linearGradient3364-8"
       y2="42.883553"
       x2="71.204407"
       y1="7.8309216"
       x1="71.204407" />
    <radialGradient
       gradientTransform="matrix(0,0.42663032,-0.45132398,-1.1612221e-8,15.313602,5.3228469)"
       gradientUnits="userSpaceOnUse"
       xlink:href="#linearGradient4632-92-3-0-8-1-6-6"
       id="radialGradient3370-2"
       fy="8.4497671"
       fx="6.2751122"
       r="19.99999"
       cy="8.4497671"
       cx="6.2751122" />
    <linearGradient
       gradientTransform="matrix(0.43066578,0,0,0.44466344,23.405594,-6.6386368)"
       gradientUnits="userSpaceOnUse"
       xlink:href="#linearGradient3104-8-8-97-4-6-2-0-1-4-0-5-8-3-9-1-4"
       id="linearGradient3373-2-5"
       y2="5.1757793"
       x2="-95.837799"
       y1="54.199703"
       x1="-95.837799" />
    <linearGradient
       id="linearGradient2867-449-88-871-390-598-476-591-434-148-57-177-3-8-8">
      <stop
         offset="0"
         style="stop-color:#ec9090;stop-opacity:1"
         id="stop3750-8-9-0" />
      <stop
         offset="0.26238"
         style="stop-color:#ea4242;stop-opacity:1"
         id="stop3752-3-2-2" />
      <stop
         offset="0.704952"
         style="stop-color:#e63636;stop-opacity:1"
         id="stop3754-7-2-2-9" />
      <stop
         offset="1"
         style="stop-color:#a02b2b;stop-opacity:1"
         id="stop3756-9-3-05" />
    </linearGradient>
    <radialGradient
       gradientTransform="matrix(0,1.8292692,-1.9351484,-4.9789892e-8,24.351597,-7.3620124)"
       gradientUnits="userSpaceOnUse"
       xlink:href="#linearGradient2867-449-88-871-390-598-476-591-434-148-57-177-3-8-8"
       id="radialGradient3386"
       fy="8.4497671"
       fx="1.1978998"
       r="19.99999"
       cy="8.4497671"
       cx="1.1978998" />
  </defs>
  <metadata
     id="metadata4510">
    <rdf:RDF>
      <cc:Work
         rdf:about="">
        <dc:format>image/svg+xml</dc:format>
        <dc:type
           rdf:resource="http://purl.org/dc/dcmitype/StillImage" />
        <dc:title />
      </cc:Work>
    </rdf:RDF>
  </metadata>
  <path
     d="M 8.000001,0.4999997 C 3.86176,0.4999997 0.5,3.8617582 0.5,8.0000002 0.5,12.138241 3.86176,15.500001 8.000001,15.5 12.138241,15.5 15.500004,12.138241 15.5,8.0000002 15.5,3.8617582 12.138241,0.4999997 8.000001,0.4999997 Z"
     id="path2555-72"
     style="color:#000000;display:inline;overflow:visible;visibility:visible;fill:url(#radialGradient3386);fill-opacity:1;fill-rule:nonzero;stroke:none;stroke-width:1;marker:none;enable-background:accumulate" />
  <path
     d="m 8,0.49999995 c -4.1382415,0 -7.5,3.36175855 -7.5,7.49999935 C 0.5,12.138241 3.8617585,15.500001 8,15.5 c 4.138241,0 7.500005,-3.361759 7.5,-7.5000007 C 15.5,3.8617585 12.138241,0.49999995 8,0.49999995 Z"
     id="path2555-7-1-7"
     style="color:#000000;clip-rule:nonzero;display:inline;overflow:visible;visibility:visible;opacity:0.5;isolation:auto;mix-blend-mode:normal;color-interpolation:sRGB;color-interpolation-filters:linearRGB;solid-color:#000000;solid-opacity:1;fill:#000000;fill-opacity:0;fill-rule:nonzero;stroke:#7d0000;stroke-width:1;stroke-linecap:round;stroke-linejoin:round;stroke-miterlimit:4;stroke-dasharray:none;stroke-dashoffset:0;stroke-opacity:1;marker:none;color-rendering:auto;image-rendering:auto;shape-rendering:auto;text-rendering:auto;enable-background:accumulate;filter-blend-mode:normal;filter-gaussianBlur-deviation:0" />
  <path
     d="M 14.5,8.0000002 C 14.5,11.589853 11.589844,14.5 7.9999996,14.5 4.4101558,14.5 1.4999999,11.589853 1.4999999,8.0000002 1.4999999,4.41015 4.4101558,1.5 7.9999996,1.5 11.589844,1.5 14.5,4.41015 14.5,8.0000002 Z"
     id="path3421"
     style="color:#000000;display:inline;overflow:visible;visibility:visible;opacity:0.5;fill:none;stroke:url(#linearGradient3097);stroke-width:0.99999994;stroke-linecap:round;stroke-linejoin:round;stroke-miterlimit:4;stroke-dasharray:none;stroke-dashoffset:0;stroke-opacity:1;marker:none;enable-background:accumulate" />
  <path
     inkscape:connector-curvature="0"
     id="path4175"
     style="font-style:normal;font-variant:normal;font-weight:normal;font-stretch:normal;font-size:medium;line-height:125%;font-family:NicoKaku;-inkscape-font-specification:NicoKaku;letter-spacing:0px;word-spacing:0px;fill:#000000;fill-opacity:1;stroke:#000000;stroke-width:2;stroke-linecap:butt;stroke-linejoin:miter;stroke-miterlimit:4;stroke-dasharray:none;stroke-opacity:1;opacity:0.05"
     d="m 3.578582,5.6772696 2.287381,0 0,-0.6772693 1.4823252,0 -0.012779,0.6772693 4.9581218,0 0,1.6101118 -4.9581218,0 0,0.7539412 2.7474128,0 q 0.9584,0.038336 1.520662,0.3961386 0.562261,0.3578026 0.805055,0.9072852 0.255574,0.536704 0.255574,1.0989656 0,0.753941 -0.319467,1.380095 -0.319466,0.626155 -0.894506,0.907286 -0.562262,0.28113 -1.290646,0.268352 l -0.7156051,0 0,-1.469547 0.7922771,0 q 0.230016,0 0.460032,-0.178901 0.242795,-0.178901 0.319467,-0.447253 0.07667,-0.268352 0.07667,-0.472811 0,-0.204459 -0.07667,-0.396139 Q 10.939093,9.8303357 10.77297,9.6897704 10.619626,9.5364264 10.38961,9.5236477 l -0.7411622,0 Q 9.5206612,10.354261 9.2011946,11.095424 8.8306133,11.849365 8.1789014,12.309397 7.5399681,12.75665 6.8243629,12.807765 l -1.1373012,0 Q 4.9586778,12.820543 4.3836379,12.462741 3.8213766,12.104938 3.578582,11.568234 3.3357874,11.018752 3.3357874,10.443712 q 0,-0.5622616 0.2427946,-1.0989656 Q 3.8341553,8.7952638 4.3964166,8.4374612 4.9586778,8.0796586 5.712619,8.0413226 l 0.153344,0 0,-0.7539412 -2.287381,0 0,-1.6101118 z M 7.6294188,10.980416 Q 7.9105494,10.660949 8.0511147,10.239253 8.153344,9.9070077 8.2172374,9.5236477 l -0.8817279,0 0,1.6995623 Q 7.5016321,11.13376 7.6294188,10.980416 Z M 5.6103897,9.5236477 q -0.2300159,0.012779 -0.3961386,0.1661227 -0.153344,0.1405653 -0.230016,0.3450236 -0.076672,0.19168 -0.076672,0.396139 0,0.204459 0.076672,0.408917 0.076672,0.19168 0.230016,0.345024 0.1661227,0.153344 0.3961386,0.153344 l 0.2555733,0 0,-1.8145703 -0.2555733,0 z" />
  <path
     inkscape:connector-curvature="0"
     id="path4172"
     style="font-style:normal;font-variant:normal;font-weight:normal;font-stretch:normal;font-size:medium;line-height:125%;font-family:NicoKaku;-inkscape-font-specification:NicoKaku;letter-spacing:0px;word-spacing:0px;fill:#000000;fill-opacity:1;stroke:none;stroke-width:1px;stroke-linecap:butt;stroke-linejoin:miter;stroke-opacity:1;opacity:0.15"
     d="m 3.578582,5.6772696 2.287381,0 0,-0.6772693 1.4823252,0 -0.012779,0.6772693 4.9581218,0 0,1.6101118 -4.9581218,0 0,0.7539412 2.7474128,0 q 0.9584,0.038336 1.520662,0.3961386 0.562261,0.3578026 0.805055,0.9072852 0.255574,0.536704 0.255574,1.0989656 0,0.753941 -0.319467,1.380095 -0.319466,0.626155 -0.894506,0.907286 -0.562262,0.28113 -1.290646,0.268352 l -0.7156051,0 0,-1.469547 0.7922771,0 q 0.230016,0 0.460032,-0.178901 0.242795,-0.178901 0.319467,-0.447253 0.07667,-0.268352 0.07667,-0.472811 0,-0.204459 -0.07667,-0.396139 Q 10.939093,9.8303357 10.77297,9.6897704 10.619626,9.5364264 10.38961,9.5236477 l -0.7411622,0 Q 9.5206612,10.354261 9.2011946,11.095424 8.8306133,11.849365 8.1789014,12.309397 7.5399681,12.75665 6.8243629,12.807765 l -1.1373012,0 Q 4.9586778,12.820543 4.3836379,12.462741 3.8213766,12.104938 3.578582,11.568234 3.3357874,11.018752 3.3357874,10.443712 q 0,-0.5622616 0.2427946,-1.0989656 Q 3.8341553,8.7952638 4.3964166,8.4374612 4.9586778,8.0796586 5.712619,8.0413226 l 0.153344,0 0,-0.7539412 -2.287381,0 0,-1.6101118 z M 7.6294188,10.980416 Q 7.9105494,10.660949 8.0511147,10.239253 8.153344,9.9070077 8.2172374,9.5236477 l -0.8817279,0 0,1.6995623 Q 7.5016321,11.13376 7.6294188,10.980416 Z M 5.6103897,9.5236477 q -0.2300159,0.012779 -0.3961386,0.1661227 -0.153344,0.1405653 -0.230016,0.3450236 -0.076672,0.19168 -0.076672,0.396139 0,0.204459 0.076672,0.408917 0.076672,0.19168 0.230016,0.345024 0.1661227,0.153344 0.3961386,0.153344 l 0.2555733,0 0,-1.8145703 -0.2555733,0 z" />
  <path
     inkscape:connector-curvature="0"
     id="path4169"
     style="font-style:normal;font-variant:normal;font-weight:normal;font-stretch:normal;font-size:medium;line-height:125%;font-family:NicoKaku;-inkscape-font-specification:NicoKaku;letter-spacing:0px;word-spacing:0px;fill:#ffffff;fill-opacity:1;stroke:none;stroke-width:1px;stroke-linecap:butt;stroke-linejoin:miter;stroke-opacity:1"
     d="m 3.578582,4.6772696 2.287381,0 0,-0.6772693 1.4823252,0 -0.012779,0.6772693 4.9581218,0 0,1.6101118 -4.9581218,0 0,0.7539412 2.7474128,0 q 0.9584,0.038336 1.520662,0.3961386 0.562261,0.3578026 0.805055,0.9072852 0.255574,0.536704 0.255574,1.0989652 0,0.7539414 -0.319467,1.3800954 -0.319466,0.626155 -0.894506,0.907286 -0.562262,0.28113 -1.290646,0.268352 l -0.7156051,0 0,-1.469547 0.7922771,0 q 0.230016,0 0.460032,-0.178901 0.242795,-0.178901 0.319467,-0.4472535 0.07667,-0.2683519 0.07667,-0.4728106 0,-0.2044586 -0.07667,-0.3961386 Q 10.939093,8.8303357 10.77297,8.6897704 10.619626,8.5364264 10.38961,8.5236477 l -0.7411622,0 Q 9.5206612,9.354261 9.2011946,10.095424 8.8306133,10.849365 8.1789014,11.309397 7.5399681,11.75665 6.8243629,11.807765 l -1.1373012,0 Q 4.9586778,11.820543 4.3836379,11.462741 3.8213766,11.104938 3.578582,10.568234 3.3357874,10.018752 3.3357874,9.4437116 q 0,-0.5622612 0.2427946,-1.0989652 Q 3.8341553,7.7952638 4.3964166,7.4374612 4.9586778,7.0796586 5.712619,7.0413226 l 0.153344,0 0,-0.7539412 -2.287381,0 0,-1.6101118 z M 7.6294188,9.9804155 Q 7.9105494,9.6609489 8.0511147,9.239253 8.153344,8.9070077 8.2172374,8.5236477 l -0.8817279,0 0,1.6995623 Q 7.5016321,10.13376 7.6294188,9.9804155 Z M 5.6103897,8.5236477 q -0.2300159,0.012779 -0.3961386,0.1661227 -0.153344,0.1405653 -0.230016,0.3450239 -0.076672,0.19168 -0.076672,0.3961386 0,0.2044587 0.076672,0.4089173 0.076672,0.1916798 0.230016,0.3450238 0.1661227,0.153344 0.3961386,0.153344 l 0.2555733,0 0,-1.8145703 -0.2555733,0 z" />
</svg>
