<?xml version="1.0" encoding="UTF-8" standalone="no"?>
<svg
   xmlns:dc="http://purl.org/dc/elements/1.1/"
   xmlns:cc="http://creativecommons.org/ns#"
   xmlns:rdf="http://www.w3.org/1999/02/22-rdf-syntax-ns#"
   xmlns:svg="http://www.w3.org/2000/svg"
   xmlns="http://www.w3.org/2000/svg"
   xmlns:xlink="http://www.w3.org/1999/xlink"
   xmlns:sodipodi="http://sodipodi.sourceforge.net/DTD/sodipodi-0.dtd"
   xmlns:inkscape="http://www.inkscape.org/namespaces/inkscape"
   id="svg4031"
   height="48"
   width="48"
   version="1.1"
   inkscape:version="0.91 r13725"
   sodipodi:docname="system-os-installer.svg">
  <sodipodi:namedview
     pagecolor="#ffffff"
     bordercolor="#666666"
     borderopacity="1"
     objecttolerance="10"
     gridtolerance="10000"
     guidetolerance="10"
     inkscape:pageopacity="0"
     inkscape:pageshadow="2"
     inkscape:window-width="1366"
     inkscape:window-height="705"
     id="namedview54"
     showgrid="true"
     inkscape:snap-perpendicular="true"
     inkscape:snap-tangential="true"
     inkscape:snap-bbox="true"
     inkscape:bbox-nodes="true"
     inkscape:bbox-paths="true"
     inkscape:snap-bbox-midpoints="true"
     inkscape:snap-bbox-edge-midpoints="true"
     inkscape:object-paths="true"
     inkscape:snap-intersection-paths="true"
     inkscape:snap-smooth-nodes="true"
     inkscape:snap-midpoints="true"
     inkscape:object-nodes="true"
     inkscape:snap-object-midpoints="true"
     inkscape:snap-center="true"
     inkscape:snap-text-baseline="true"
     inkscape:snap-page="true"
     inkscape:snap-global="true"
     inkscape:zoom="2.4583333"
     inkscape:cx="-51.156374"
     inkscape:cy="-7.1908481"
     inkscape:window-x="0"
     inkscape:window-y="30"
     inkscape:window-maximized="1"
     inkscape:current-layer="svg4031">
    <inkscape:grid
       type="xygrid"
       id="grid4282" />
  </sodipodi:namedview>
  <defs
     id="defs4033">
    <linearGradient
       id="linearGradient3820-7-2-1">
      <stop
         offset="0"
         style="stop-color:#3d3d3d;stop-opacity:1"
         id="stop3822-2-6-3" />
      <stop
         offset="0.5"
         style="stop-color:#686868;stop-opacity:0.49803922"
         id="stop3864-8-7-7" />
      <stop
         offset="1"
         style="stop-color:#686868;stop-opacity:0"
         id="stop3824-1-2-5" />
    </linearGradient>
    <radialGradient
       gradientTransform="matrix(0.27083381,0,0,0.08762273,-2.855072,25.187228)"
       gradientUnits="userSpaceOnUse"
       xlink:href="#linearGradient3820-7-2-1"
       id="radialGradient3018"
       fy="186.17059"
       fx="99.157013"
       r="62.769119"
       cy="186.17059"
       cx="99.157013" />
    <linearGradient
       id="linearGradient4011-7">
      <stop
         offset="0"
         style="stop-color:#ffffff;stop-opacity:1"
         id="stop4013-4" />
      <stop
         offset="0.507761"
         style="stop-color:#ffffff;stop-opacity:0.23529412"
         id="stop4015-61" />
      <stop
         offset="0.83456558"
         style="stop-color:#ffffff;stop-opacity:0.15686275"
         id="stop4017-2" />
      <stop
         offset="1"
         style="stop-color:#ffffff;stop-opacity:0.39215687"
         id="stop4019-2" />
    </linearGradient>
    <linearGradient
       id="linearGradient8838-4">
      <stop
         offset="0"
         style="stop-color:#000000;stop-opacity:1"
         id="stop8840-4" />
      <stop
         offset="1"
         style="stop-color:#000000;stop-opacity:0"
         id="stop8842-8" />
    </linearGradient>
    <linearGradient
       gradientTransform="matrix(0.5135135,0,0,0.5135135,-0.836132,22.978716)"
       gradientUnits="userSpaceOnUse"
       xlink:href="#linearGradient4011-7"
       id="linearGradient3741"
       y2="42.883553"
       x2="71.204407"
       y1="7.8309216"
       x1="71.204407" />
    <radialGradient
       gradientTransform="matrix(1.1294118,0,0,0.2823525,-34.729414,43.694118)"
       gradientUnits="userSpaceOnUse"
       xlink:href="#linearGradient8838-4"
       id="radialGradient3748"
       fy="4.625"
       fx="62.625"
       r="10.625"
       cy="4.625"
       cx="62.625" />
    <linearGradient
       id="linearGradient4632-92-3-0-8-1-6-6">
      <stop
         offset="0"
         style="stop-color:#fafafa;stop-opacity:1"
         id="stop4634-68-8-0-2-9-1-1" />
      <stop
         offset="1"
         style="stop-color:#e1e1e1;stop-opacity:1"
         id="stop4636-8-21-7-1-4-9-4" />
    </linearGradient>
    <radialGradient
       xlink:href="#linearGradient4632-92-3-0-8-1-6-6"
       id="radialGradient3398"
       gradientUnits="userSpaceOnUse"
       gradientTransform="matrix(0,1.2189437,-1.289497,-3.3177771e-8,46.896006,18.350992)"
       cx="6.2751122"
       cy="8.4497671"
       fx="6.2751122"
       fy="8.4497671"
       r="19.99999" />
    <linearGradient
       xlink:href="#linearGradient3104-8-8-97-4-6-2-0-1-4-0-5-8-3-9-1"
       id="linearGradient4200-6"
       gradientUnits="userSpaceOnUse"
       gradientTransform="matrix(0.80749834,0,0,0.83374395,113.01159,-2.35899)"
       x1="-95.837799"
       y1="54.199703"
       x2="-95.837799"
       y2="5.1757793" />
    <linearGradient
       id="linearGradient3104-8-8-97-4-6-2-0-1-4-0-5-8-3-9-1">
      <stop
         offset="0"
         style="stop-color:#000000;stop-opacity:0.32173914"
         id="stop3106-5-4-3-5-0-1-61-9-2-7-3-3-2-6-9" />
      <stop
         offset="1"
         style="stop-color:#000000;stop-opacity:0.27826086"
         id="stop3108-4-3-7-8-2-4-01-9-9-0-6-4-3-7-7" />
    </linearGradient>
    <linearGradient
       id="linearGradient2867-449-88-871-390-598-476-591-434-148-57-177-3-8-8">
      <stop
         id="stop3750-8-9-0"
         style="stop-color:#90dbec;stop-opacity:1"
         offset="0" />
      <stop
         id="stop3752-3-2-2"
         style="stop-color:#42baea;stop-opacity:1"
         offset="0.26238" />
      <stop
         id="stop3754-7-2-2"
         style="stop-color:#3689e6;stop-opacity:1"
         offset="0.704952" />
      <stop
         id="stop3756-9-3-05"
         style="stop-color:#2b63a0;stop-opacity:1"
         offset="1" />
    </linearGradient>
    <linearGradient
       id="linearGradient4011-8">
      <stop
         id="stop4013-9"
         style="stop-color:#ffffff;stop-opacity:1"
         offset="0" />
      <stop
         id="stop4015-2"
         style="stop-color:#ffffff;stop-opacity:0.23529412"
         offset="0.507761" />
      <stop
         id="stop4017-28"
         style="stop-color:#ffffff;stop-opacity:0.15686275"
         offset="0.83456558" />
      <stop
         id="stop4019-23"
         style="stop-color:#ffffff;stop-opacity:0.39215687"
         offset="1" />
    </linearGradient>
    <linearGradient
       y2="44.340794"
       x2="71.204407"
       y1="6.2375584"
       x1="71.204407"
       gradientTransform="matrix(1.054054,0,0,1.054054,-51.611004,-2.7279013)"
       gradientUnits="userSpaceOnUse"
       id="linearGradient3540"
       xlink:href="#linearGradient4011-8" />
    <radialGradient
       r="19.99999"
       fy="8.4497671"
       fx="1.1978998"
       cy="8.4497671"
       cx="1.1978998"
       gradientTransform="matrix(0,5.0000024,-5.2894057,-1.3609237e-7,68.694364,-17.989501)"
       gradientUnits="userSpaceOnUse"
       id="radialGradient3543"
       xlink:href="#linearGradient2867-449-88-871-390-598-476-591-434-148-57-177-3-8-8-2" />
    <radialGradient
       cx="99.157013"
       cy="186.17059"
       r="62.769119"
       fx="99.157013"
       fy="186.17059"
       id="radialGradient3043"
       xlink:href="#linearGradient3820-7-2-1"
       gradientUnits="userSpaceOnUse"
       gradientTransform="matrix(0.17524541,0,0,0.05575992,-44.834437,39.449321)" />
    <linearGradient
       x1="71.204407"
       y1="6.2375584"
       x2="71.204407"
       y2="44.340794"
       id="linearGradient3012"
       xlink:href="#linearGradient4011-7"
       gradientUnits="userSpaceOnUse"
       gradientTransform="matrix(0.72972969,0,0,0.72972969,-79.803704,18.826245)" />
    <linearGradient
       x1="71.204407"
       y1="7.8309216"
       x2="71.204407"
       y2="42.883553"
       id="linearGradient3364"
       xlink:href="#linearGradient4011-7"
       gradientUnits="userSpaceOnUse"
       gradientTransform="matrix(0.35135134,0,0,0.35135134,-1.203669,15.0907)" />
    <radialGradient
       cx="6.2751122"
       cy="8.4497671"
       r="19.99999"
       fx="6.2751122"
       fy="8.4497671"
       id="radialGradient3370"
       xlink:href="#linearGradient4632-92-3-0-8-1-6-6"
       gradientUnits="userSpaceOnUse"
       gradientTransform="matrix(0,0.85326058,-0.90264791,-2.322444e-8,31.627204,11.645694)" />
    <radialGradient
       cx="1.1978998"
       cy="8.4497671"
       r="19.99999"
       fx="1.1978998"
       fy="8.4497671"
       id="radialGradient3386"
       xlink:href="#linearGradient2867-449-88-871-390-598-476-591-434-148-57-177-3-8-8-2"
       gradientUnits="userSpaceOnUse"
       gradientTransform="matrix(0,3.5365871,-3.741287,-9.6260457e-8,4.15546,7.630285)" />
    <linearGradient
       x1="-95.837799"
       y1="54.199703"
       x2="-95.837799"
       y2="5.1757793"
       id="linearGradient3373-2"
       xlink:href="#linearGradient8838-4"
       gradientUnits="userSpaceOnUse"
       gradientTransform="matrix(0.80749834,0,0,0.83374395,46.322988,-10.009944)" />
    <linearGradient
       gradientTransform="matrix(0.77562456,0,0,0.77562491,-73.879871,-6.1142608)"
       gradientUnits="userSpaceOnUse"
       xlink:href="#linearGradient4806-9"
       id="linearGradient3097"
       y2="40.495617"
       x2="71.204407"
       y1="15.369057"
       x1="71.204407" />
    <linearGradient
       id="linearGradient4806-9">
      <stop
         offset="0"
         style="stop-color:#ffffff;stop-opacity:1"
         id="stop4808-49" />
      <stop
         offset="0.42447853"
         style="stop-color:#ffffff;stop-opacity:0.23529412"
         id="stop4810-05" />
      <stop
         offset="0.82089913"
         style="stop-color:#ffffff;stop-opacity:0.15686275"
         id="stop4812-6" />
      <stop
         offset="1"
         style="stop-color:#ffffff;stop-opacity:0.39215687"
         id="stop4814-7" />
    </linearGradient>
    <radialGradient
       gradientTransform="matrix(0.11151981,0,0,0.03548359,-28.956276,18.666729)"
       gradientUnits="userSpaceOnUse"
       xlink:href="#linearGradient3820-7-2-1"
       id="radialGradient3108"
       fy="186.17059"
       fx="99.157013"
       r="62.769119"
       cy="186.17059"
       cx="99.157013" />
    <linearGradient
       x1="71.204407"
       y1="7.8309216"
       x2="71.204407"
       y2="42.883553"
       id="linearGradient3364-8"
       xlink:href="#linearGradient4011-7"
       gradientUnits="userSpaceOnUse"
       gradientTransform="matrix(0.21621622,0,0,0.21621622,2.9900492,13.017354)" />
    <radialGradient
       cx="6.2751122"
       cy="8.4497671"
       r="19.99999"
       fx="6.2751122"
       fy="8.4497671"
       id="radialGradient3370-2"
       xlink:href="#linearGradient4632-92-3-0-8-1-6-6"
       gradientUnits="userSpaceOnUse"
       gradientTransform="matrix(0,0.5485247,-0.58027369,-1.4929998e-8,23.403203,10.557946)" />
    <linearGradient
       x1="-95.837799"
       y1="54.199703"
       x2="-95.837799"
       y2="5.1757793"
       id="linearGradient3373-2-5"
       xlink:href="#linearGradient8838-4"
       gradientUnits="userSpaceOnUse"
       gradientTransform="matrix(0.53833223,0,0,0.5558293,33.381992,-4.173296)" />
    <radialGradient
       gradientTransform="matrix(0,2.5609769,-2.7092078,-6.9705848e-8,4.99393,-6.0088664)"
       gradientUnits="userSpaceOnUse"
       xlink:href="#linearGradient2867-449-88-871-390-598-476-591-434-148-57-177-3-8-8-2"
       id="radialGradient3386-2"
       fy="8.4497671"
       fx="1.1978998"
       r="19.99999"
       cy="8.4497671"
       cx="1.1978998" />
    <linearGradient
       gradientTransform="matrix(0.53069046,0,0,0.53069075,-63.930295,-12.042942)"
       gradientUnits="userSpaceOnUse"
       xlink:href="#linearGradient4806-9"
       id="linearGradient3097-2"
       y2="40.495617"
       x2="71.204407"
       y1="15.369057"
       x1="71.204407" />
    <linearGradient
       x1="71.204407"
       y1="7.8309216"
       x2="71.204407"
       y2="42.883553"
       id="linearGradient3364-8-6"
       xlink:href="#linearGradient4011-7"
       gradientUnits="userSpaceOnUse"
       gradientTransform="matrix(0.16216217,0,0,0.16216217,-0.1324634,7.3880156)" />
    <radialGradient
       cx="6.2751122"
       cy="8.4497671"
       r="19.99999"
       fx="6.2751122"
       fy="8.4497671"
       id="radialGradient3370-2-0"
       xlink:href="#linearGradient4632-92-3-0-8-1-6-6"
       gradientUnits="userSpaceOnUse"
       gradientTransform="matrix(0,0.42663032,-0.45132398,-1.1612221e-8,15.313602,5.3228469)" />
    <linearGradient
       x1="-95.837799"
       y1="54.199703"
       x2="-95.837799"
       y2="5.1757793"
       id="linearGradient3373-2-5-6"
       xlink:href="#linearGradient8838-4"
       gradientUnits="userSpaceOnUse"
       gradientTransform="matrix(0.43066578,0,0,0.44466344,23.405594,-6.6386368)" />
    <linearGradient
       id="linearGradient2867-449-88-871-390-598-476-591-434-148-57-177-3-8-8-2">
      <stop
         id="stop3750-8-9-0-6"
         style="stop-color:#ec9090;stop-opacity:1"
         offset="0" />
      <stop
         id="stop3752-3-2-2-1"
         style="stop-color:#ea4242;stop-opacity:1"
         offset="0.26238" />
      <stop
         id="stop3754-7-2-2-9-8"
         style="stop-color:#e63636;stop-opacity:1"
         offset="0.704952" />
      <stop
         id="stop3756-9-3-05-7"
         style="stop-color:#a02b2b;stop-opacity:1"
         offset="1" />
    </linearGradient>
    <radialGradient
       cx="1.1978998"
       cy="8.4497671"
       r="19.99999"
       fx="1.1978998"
       fy="8.4497671"
       id="radialGradient3386-9"
       xlink:href="#linearGradient2867-449-88-871-390-598-476-591-434-148-57-177-3-8-8-2"
       gradientUnits="userSpaceOnUse"
       gradientTransform="matrix(0,1.8292692,-1.9351484,-4.9789892e-8,-9.275522,-12.61625)" />
    <radialGradient
       cx="99.157013"
       cy="186.17059"
       r="62.769119"
       fx="99.157013"
       fy="186.17059"
       id="radialGradient3043-3"
       xlink:href="#linearGradient3820-7-2-1"
       gradientUnits="userSpaceOnUse"
       gradientTransform="matrix(0.17524541,0,0,0.05575992,-1.37681,18.119145)" />
    <linearGradient
       x1="71.204407"
       y1="6.2375584"
       x2="71.204407"
       y2="44.340794"
       id="linearGradient3012-6"
       xlink:href="#linearGradient4011-7"
       gradientUnits="userSpaceOnUse"
       gradientTransform="matrix(0.72972969,0,0,0.72972969,-36.346077,-2.5039312)" />
    <linearGradient
       x1="71.204407"
       y1="7.8309216"
       x2="71.204407"
       y2="42.883553"
       id="linearGradient4268"
       xlink:href="#linearGradient4011-7"
       gradientUnits="userSpaceOnUse"
       gradientTransform="matrix(0.35135134,0,0,0.35135134,-1.203669,15.0907)" />
    <radialGradient
       cx="6.2751122"
       cy="8.4497671"
       r="19.99999"
       fx="6.2751122"
       fy="8.4497671"
       id="radialGradient3370-7"
       xlink:href="#linearGradient4632-92-3-0-8-1-6-6"
       gradientUnits="userSpaceOnUse"
       gradientTransform="matrix(0,0.85326058,-0.90264791,-2.322444e-8,31.627204,11.645694)" />
    <radialGradient
       cx="1.1978998"
       cy="8.4497671"
       r="19.99999"
       fx="1.1978998"
       fy="8.4497671"
       id="radialGradient3386-0"
       xlink:href="#linearGradient2867-449-88-871-390-598-476-591-434-148-57-177-3-8-8-2"
       gradientUnits="userSpaceOnUse"
       gradientTransform="matrix(0,3.5365871,-3.741287,-9.6260457e-8,47.613087,-13.699891)" />
    <radialGradient
       gradientTransform="matrix(0.11151981,0,0,0.03548359,-28.956276,18.666729)"
       gradientUnits="userSpaceOnUse"
       xlink:href="#linearGradient3820-7-2-1"
       id="radialGradient3108-6"
       fy="186.17059"
       fx="99.157013"
       r="62.769119"
       cy="186.17059"
       cx="99.157013" />
    <linearGradient
       x1="71.204407"
       y1="7.8309216"
       x2="71.204407"
       y2="42.883553"
       id="linearGradient4273"
       xlink:href="#linearGradient4011-7"
       gradientUnits="userSpaceOnUse"
       gradientTransform="matrix(0.21621622,0,0,0.21621622,2.9900492,13.017354)" />
    <radialGradient
       cx="6.2751122"
       cy="8.4497671"
       r="19.99999"
       fx="6.2751122"
       fy="8.4497671"
       id="radialGradient3370-2-2"
       xlink:href="#linearGradient4632-92-3-0-8-1-6-6"
       gradientUnits="userSpaceOnUse"
       gradientTransform="matrix(0,0.5485247,-0.58027369,-1.4929998e-8,23.403203,10.557946)" />
    <linearGradient
       x1="-95.837799"
       y1="54.199703"
       x2="-95.837799"
       y2="5.1757793"
       id="linearGradient4276"
       xlink:href="#linearGradient8838-4"
       gradientUnits="userSpaceOnUse"
       gradientTransform="matrix(0.53833223,0,0,0.5558293,33.381992,-4.173296)" />
    <radialGradient
       gradientTransform="matrix(0,2.5609769,-2.7092078,-6.9705848e-8,4.99393,-6.0088664)"
       gradientUnits="userSpaceOnUse"
       xlink:href="#linearGradient2867-449-88-871-390-598-476-591-434-148-57-177-3-8-8-2"
       id="radialGradient3386-2-6"
       fy="8.4497671"
       fx="1.1978998"
       r="19.99999"
       cy="8.4497671"
       cx="1.1978998" />
    <linearGradient
       gradientTransform="matrix(0.53069046,0,0,0.53069075,-63.930295,-12.042942)"
       gradientUnits="userSpaceOnUse"
       xlink:href="#linearGradient4806-9"
       id="linearGradient4279"
       y2="40.495617"
       x2="71.204407"
       y1="15.369057"
       x1="71.204407" />
    <linearGradient
       x1="71.204407"
       y1="7.8309216"
       x2="71.204407"
       y2="42.883553"
       id="linearGradient4281"
       xlink:href="#linearGradient4011-7"
       gradientUnits="userSpaceOnUse"
       gradientTransform="matrix(0.16216217,0,0,0.16216217,-0.1324634,7.3880156)" />
    <radialGradient
       cx="6.2751122"
       cy="8.4497671"
       r="19.99999"
       fx="6.2751122"
       fy="8.4497671"
       id="radialGradient3370-2-0-1"
       xlink:href="#linearGradient4632-92-3-0-8-1-6-6"
       gradientUnits="userSpaceOnUse"
       gradientTransform="matrix(0,0.42663032,-0.45132398,-1.1612221e-8,15.313602,5.3228469)" />
    <linearGradient
       x1="-95.837799"
       y1="54.199703"
       x2="-95.837799"
       y2="5.1757793"
       id="linearGradient4284"
       xlink:href="#linearGradient8838-4"
       gradientUnits="userSpaceOnUse"
       gradientTransform="matrix(0.43066578,0,0,0.44466344,23.405594,-6.6386368)" />
    <radialGradient
       cx="1.1978998"
       cy="8.4497671"
       r="19.99999"
       fx="1.1978998"
       fy="8.4497671"
       id="radialGradient3386-9-0"
       xlink:href="#linearGradient2867-449-88-871-390-598-476-591-434-148-57-177-3-8-8-2"
       gradientUnits="userSpaceOnUse"
       gradientTransform="matrix(0,1.8292692,-1.9351484,-4.9789892e-8,-9.275522,-12.61625)" />
  </defs>
  <metadata
     id="metadata4036">
    <rdf:RDF>
      <cc:Work
         rdf:about="">
        <dc:format>image/svg+xml</dc:format>
        <dc:type
           rdf:resource="http://purl.org/dc/dcmitype/StillImage" />
        <dc:title />
      </cc:Work>
    </rdf:RDF>
  </metadata>
  <path
     style="fill:url(#radialGradient3018);fill-opacity:1;stroke:none"
     id="path3818-0-5"
     d="m 40.999999,41.499999 a 17,5.4999999 0 1 1 -33.999999,0 17,5.4999999 0 1 1 33.999999,0 z" />
  <path
     style="color:#000000;fill:url(#radialGradient3543);fill-opacity:1.0;fill-rule:nonzero;stroke:none;stroke-width:1;marker:none;visibility:visible;display:inline;overflow:visible;enable-background:accumulate"
     id="path2555"
     d="M 24.000003,3.4999978 C 12.68881,3.4999978 3.5,12.688804 3.5,23.999998 3.5,35.311192 12.68881,44.500003 24.000003,44.5 35.311191,44.5 44.500011,35.311192 44.5,23.999998 44.5,12.688804 35.311191,3.4999978 24.000003,3.4999978 z" />
  <path
     style="opacity:0.5;color:#000000;fill:none;stroke:url(#linearGradient3540);stroke-width:1;stroke-linecap:round;stroke-linejoin:round;stroke-miterlimit:4;stroke-opacity:1;stroke-dasharray:none;stroke-dashoffset:0;marker:none;visibility:visible;display:inline;overflow:visible;enable-background:accumulate"
     id="path8655-4"
     d="m 43.5,23.999308 c 0,10.7699 -8.73109,19.50069 -19.499753,19.50069 C 13.230598,43.499998 4.5,34.769109 4.5,23.999308 4.5,13.229906 13.230598,4.4999998 24.000247,4.4999998 34.76891,4.4999998 43.5,13.229906 43.5,23.999308 l 0,0 z" />
  <path
     style="opacity:0.5;color:#000000;fill:#000000;fill-opacity:0;fill-rule:nonzero;stroke:#7d0000;stroke-width:1;stroke-linecap:round;stroke-linejoin:round;stroke-miterlimit:4;stroke-opacity:1;stroke-dasharray:none;stroke-dashoffset:0;marker:none;visibility:visible;display:inline;overflow:visible;enable-background:accumulate"
     id="path2555-6-0"
     d="M 24.000003,3.4999976 C 12.68881,3.4999976 3.5,12.688804 3.5,23.999998 3.5,35.311192 12.68881,44.500003 24.000003,44.5 35.311191,44.5 44.500011,35.311192 44.5,23.999998 44.5,12.688804 35.311191,3.4999976 24.000003,3.4999976 z" />
  <path
     inkscape:connector-curvature="0"
     id="path4316"
     style="font-style:normal;font-variant:normal;font-weight:normal;font-stretch:normal;font-size:medium;line-height:125%;font-family:NicoKaku;-inkscape-font-specification:NicoKaku;letter-spacing:0px;word-spacing:0px;fill:#000000;fill-opacity:1;stroke:#000000;stroke-width:2;stroke-linecap:butt;stroke-linejoin:miter;stroke-opacity:1;opacity:0.05;stroke-miterlimit:4;stroke-dasharray:none"
     d="m 13.607031,17.083031 5.718808,0 0,-1.693281 3.706042,0 -0.03196,1.693281 12.396076,0 0,4.025528 -12.396078,0 0,1.884974 6.868962,0 q 2.396151,0.09584 3.801894,0.990406 1.405742,0.894561 2.012765,2.268353 0.638974,1.341844 0.638974,2.747588 0,1.884972 -0.798718,3.450451 -0.798715,1.565486 -2.236407,2.268358 -1.405739,0.70287 -3.226814,0.670922 l -1.789123,0 0,-3.674097 1.980814,0 q 0.575077,0 1.150151,-0.44728 0.60703,-0.447282 0.79872,-1.118205 0.191693,-0.670921 0.191693,-1.182098 0,-0.511181 -0.191693,-0.990411 -0.191691,-0.511179 -0.60702,-0.862615 -0.383381,-0.383383 -0.958458,-0.41533 l -1.853017,0 q -0.319487,2.076663 -1.118204,3.929687 -0.926514,1.884968 -2.555895,3.035119 -1.597432,1.118203 -3.386555,1.246 l -2.843433,0 Q 17.057479,34.942341 15.619792,34.047767 14.214049,33.153205 13.607025,31.811358 13,30.437571 13,28.99988 q 0,-1.405744 0.607021,-2.747588 0.638975,-1.373792 2.044718,-2.268353 1.40574,-0.894561 3.290709,-0.990406 l 0.383387,0 0,-1.884974 -5.718814,0 0,-4.025528 z m 10.127722,13.258693 q 0.70287,-0.798718 1.054308,-1.853024 0.25559,-0.830663 0.415328,-1.789125 l -2.204453,0 0,4.249172 q 0.41533,-0.223641 0.734818,-0.607023 z m -5.047888,-3.642149 q -0.575074,0.03195 -0.99041,0.41533 -0.383383,0.351436 -0.575074,0.862615 -0.191692,0.47923 -0.191692,0.990411 0,0.511177 0.191692,1.022356 0.191691,0.479227 0.575074,0.862612 0.415336,0.383384 0.99041,0.383384 l 0.638974,0 0,-4.536708 -0.638974,0 z" />
  <path
     d="m 13.607031,17.083031 5.718808,0 0,-1.693281 3.706042,0 -0.03196,1.693281 12.396076,0 0,4.025528 -12.396078,0 0,1.884974 6.868962,0 q 2.396151,0.09584 3.801894,0.990406 1.405742,0.894561 2.012765,2.268353 0.638974,1.341844 0.638974,2.747588 0,1.884972 -0.798718,3.450451 -0.798715,1.565486 -2.236407,2.268358 -1.405739,0.70287 -3.226814,0.670922 l -1.789123,0 0,-3.674097 1.980814,0 q 0.575077,0 1.150151,-0.44728 0.60703,-0.447282 0.79872,-1.118205 0.191693,-0.670921 0.191693,-1.182098 0,-0.511181 -0.191693,-0.990411 -0.191691,-0.511179 -0.60702,-0.862615 -0.383381,-0.383383 -0.958458,-0.41533 l -1.853017,0 q -0.319487,2.076663 -1.118204,3.929687 -0.926514,1.884968 -2.555895,3.035119 -1.597432,1.118203 -3.386555,1.246 l -2.843433,0 Q 17.057479,34.942341 15.619792,34.047767 14.214049,33.153205 13.607025,31.811358 13,30.437571 13,28.99988 q 0,-1.405744 0.607021,-2.747588 0.638975,-1.373792 2.044718,-2.268353 1.40574,-0.894561 3.290709,-0.990406 l 0.383387,0 0,-1.884974 -5.718814,0 0,-4.025528 z m 10.127722,13.258693 q 0.70287,-0.798718 1.054308,-1.853024 0.25559,-0.830663 0.415328,-1.789125 l -2.204453,0 0,4.249172 q 0.41533,-0.223641 0.734818,-0.607023 z m -5.047888,-3.642149 q -0.575074,0.03195 -0.99041,0.41533 -0.383383,0.351436 -0.575074,0.862615 -0.191692,0.47923 -0.191692,0.990411 0,0.511177 0.191692,1.022356 0.191691,0.479227 0.575074,0.862612 0.415336,0.383384 0.99041,0.383384 l 0.638974,0 0,-4.536708 -0.638974,0 z"
     style="font-style:normal;font-variant:normal;font-weight:normal;font-stretch:normal;font-size:medium;line-height:125%;font-family:NicoKaku;-inkscape-font-specification:NicoKaku;letter-spacing:0px;word-spacing:0px;fill:#000000;fill-opacity:1;stroke:none;stroke-width:1px;stroke-linecap:butt;stroke-linejoin:miter;stroke-opacity:1;opacity:0.15"
     id="path4314"
     inkscape:connector-curvature="0" />
  <path
     inkscape:connector-curvature="0"
     id="path4312"
     style="font-style:normal;font-variant:normal;font-weight:normal;font-stretch:normal;font-size:medium;line-height:125%;font-family:NicoKaku;-inkscape-font-specification:NicoKaku;letter-spacing:0px;word-spacing:0px;fill:#ffffff;fill-opacity:1;stroke:none;stroke-width:1px;stroke-linecap:butt;stroke-linejoin:miter;stroke-opacity:1"
     d="m 13.607031,16.083151 5.718808,0 0,-1.693281 3.706042,0 -0.03196,1.693281 12.396076,0 0,4.025528 -12.396078,0 0,1.884974 6.868962,0 q 2.396151,0.09584 3.801894,0.990406 1.405742,0.894561 2.012765,2.268353 0.638974,1.341844 0.638974,2.747588 0,1.884972 -0.798718,3.450451 -0.798715,1.565486 -2.236407,2.268358 -1.405739,0.70287 -3.226814,0.670922 l -1.789123,0 0,-3.674097 1.980814,0 q 0.575077,0 1.150151,-0.44728 0.60703,-0.447282 0.79872,-1.118205 0.191693,-0.670921 0.191693,-1.182098 0,-0.511181 -0.191693,-0.990411 -0.191691,-0.511179 -0.60702,-0.862615 -0.383381,-0.383383 -0.958458,-0.41533 l -1.853017,0 q -0.319487,2.076663 -1.118204,3.929687 -0.926514,1.884968 -2.555895,3.035119 -1.597432,1.118203 -3.386555,1.246 l -2.843433,0 Q 17.057479,33.942461 15.619792,33.047887 14.214049,32.153325 13.607025,30.811478 13,29.437691 13,28 q 0,-1.405744 0.607021,-2.747588 0.638975,-1.373792 2.044718,-2.268353 1.40574,-0.894561 3.290709,-0.990406 l 0.383387,0 0,-1.884974 -5.718814,0 0,-4.025528 z m 10.127722,13.258693 q 0.70287,-0.798718 1.054308,-1.853024 0.25559,-0.830663 0.415328,-1.789125 l -2.204453,0 0,4.249172 q 0.41533,-0.223641 0.734818,-0.607023 z m -5.047888,-3.642149 q -0.575074,0.03195 -0.99041,0.41533 -0.383383,0.351436 -0.575074,0.862615 -0.191692,0.47923 -0.191692,0.990411 0,0.511177 0.191692,1.022356 0.191691,0.479227 0.575074,0.862612 0.415336,0.383384 0.99041,0.383384 l 0.638974,0 0,-4.536708 -0.638974,0 z" />
</svg>
